<?xml version="1.0" encoding="utf-8"?>
<!-- Generator: Adobe Illustrator 26.0.0, SVG Export Plug-In . SVG Version: 6.00 Build 0)  -->
<svg version="1.1" id="Capa_1" xmlns="http://www.w3.org/2000/svg" xmlns:xlink="http://www.w3.org/1999/xlink" x="0px" y="0px"
	 viewBox="0 0 648 648" style="enable-background:new 0 0 648 648;" xml:space="preserve">
<style type="text/css">
	.st0{clip-path:url(#XMLID_00000086681377932909678230000000079024547720972177_);fill:#BE1622;}
	.st1{fill:#FFFFFF;}
	.st2{clip-path:url(#XMLID_00000165942256848985978020000005594652736091553195_);fill:#8DFFFC;}
</style>
<g>
	<g>
		<path d="M475.95,106.32c-6.52,10.44-9.14,14.36-11.75,18.92c-7.18,13.05-13.05,30.02-19.58,55.46l-78.95,303.42
			c-0.65,3.26-1.3,7.83-1.96,13.05c-1.3,9.14-1.96,16.31-1.96,20.88c0,9.14,0.65,13.05,4.57,23.49h-195.1
			c6.52-9.79,9.13-13.7,11.75-18.27c7.18-13.7,13.05-30.67,19.58-56.12l78.95-303.42c0.65-2.61,1.3-7.18,1.96-13.05
			c1.3-9.14,1.96-15.66,1.96-20.88c0-8.48-0.65-13.05-4.57-23.49H475.95 M475.95,86.03h-195.1c-6.65,0-12.89,3.26-16.68,8.73
			c-3.79,5.47-4.66,12.45-2.32,18.68c3.13,8.34,3.28,10.57,3.28,16.37c0,3.97-0.54,9.52-1.75,18.01c-0.03,0.21-0.06,0.42-0.08,0.63
			c-0.81,7.33-1.33,9.77-1.46,10.31l-78.92,303.29c-0.01,0.02-0.01,0.05-0.02,0.07c-6.13,23.92-11.44,39.33-17.72,51.41
			c-2.21,3.84-4.64,7.48-10.83,16.76c-4.15,6.23-4.54,14.23-1.01,20.83c3.53,6.6,10.41,10.71,17.89,10.71h195.1
			c6.65,0,12.88-3.26,16.68-8.73c3.79-5.47,4.66-12.45,2.32-18.68c-3.17-8.47-3.28-9.94-3.28-16.37c0-1.72,0.17-6.93,1.75-18.01
			c0.02-0.12,0.03-0.23,0.05-0.35c0.62-4.93,1.16-8.65,1.62-11.07l78.79-302.81c0.01-0.02,0.01-0.05,0.02-0.07
			c6.22-24.25,11.49-39.39,17.62-50.58c1.49-2.6,3.05-5.07,5.83-9.47c1.46-2.32,3.22-5.1,5.42-8.62c3.91-6.25,4.12-14.14,0.54-20.59
			C490.12,90.03,483.32,86.03,475.95,86.03L475.95,86.03z M475.95,126.6L475.95,126.6L475.95,126.6L475.95,126.6z"/>
	</g>
</g>
<g>
	<g>
		<g>
			<defs>
				<path id="XMLID_00000063618268681617334360000016863309188413568139_" d="M463.09,113.41c-2.1,3.34-3.56,5.7-5.05,8.31
					l-0.02,0.05l-0.03,0.05c-7.33,13.33-13.39,30.41-20.23,57.09l-78.95,303.42l-0.05,0.19l-0.04,0.2
					c-0.63,3.12-1.28,7.42-2.04,13.49c-1.32,9.27-2.02,16.81-2.02,21.83c0,6.71,0.41,11.1,1.83,16.39H184.44
					c1.9-2.94,3.3-5.2,4.7-7.65l0.06-0.11l0.06-0.12c7.38-14.11,13.42-31.34,20.16-57.62l78.95-303.42l0.01-0.03l0.01-0.03
					c0.7-2.79,1.37-7.2,2.11-13.88c1.42-9.89,2.02-16.41,2.02-21.78c0-6.24-0.34-10.69-1.86-16.39H463.09z"/>
			</defs>
			<use xlink:href="#XMLID_00000063618268681617334360000016863309188413568139_"  style="overflow:visible;fill:#FF0000;"/>
			<clipPath id="XMLID_00000092454433559373712090000011600889968259514795_">
				<use xlink:href="#XMLID_00000063618268681617334360000016863309188413568139_"  style="overflow:visible;"/>
			</clipPath>
			<path style="clip-path:url(#XMLID_00000092454433559373712090000011600889968259514795_);fill:#BE1622;" d="M416.01,313.99
				c-43.05-5.64-64.15,43.21-82.21,73.45c-11.42,19.11-22.84,38.23-34.26,57.34c-9.95,16.66-20.75,33.85-22.86,53.58
				c-1.92,17.99,4.76,37.15,20.62,46.89c6.69,4.11,12.57-6.55,5.9-10.65c-11.67-7.17-15.76-21.96-14.49-34.96
				c1.68-17.28,11.77-32.73,20.45-47.25c9.89-16.55,19.77-33.09,29.66-49.64c9.65-16.15,18.82-32.72,29.21-48.41
				c9.81-14.81,25.39-31.12,44.97-28.56C420.69,326.8,423.76,315.01,416.01,313.99z"/>
		</g>
		<path class="st1" d="M280.85,106.31c3.92,10.45,4.56,15.01,4.56,23.49c0,5.22-0.65,11.75-1.96,20.89
			c-0.65,5.87-1.31,10.44-1.96,13.04l-78.95,303.41c-6.53,25.45-12.41,42.42-19.58,56.12c-2.61,4.57-5.22,8.49-11.75,18.28h195.1
			c-3.92-10.45-4.56-14.36-4.56-23.49c0-4.57,0.65-11.75,1.96-20.89c0.65-5.21,1.31-9.78,1.96-13.04l78.95-303.41
			c6.53-25.45,12.41-42.42,19.58-55.47c2.61-4.56,5.22-8.48,11.75-18.93H280.85z M458.01,121.77l-0.03,0.05
			c-7.33,13.33-13.39,30.41-20.23,57.09l-78.95,303.42l-0.05,0.19l-0.04,0.2c-0.63,3.12-1.28,7.42-2.04,13.49
			c-1.32,9.27-2.02,16.81-2.02,21.83c0,6.71,0.41,11.1,1.83,16.39H184.44c1.9-2.94,3.3-5.2,4.7-7.65l0.06-0.11l0.06-0.12
			c7.38-14.11,13.42-31.34,20.16-57.62l78.95-303.42l0.01-0.03l0.01-0.03c0.7-2.79,1.37-7.2,2.11-13.88
			c1.42-9.89,2.02-16.41,2.02-21.78c0-6.24-0.34-10.69-1.86-16.39h172.43c-2.1,3.34-3.56,5.7-5.05,8.31L458.01,121.77z"/>
	</g>
</g>
<g>
	<defs>
		<path id="XMLID_00000111181553175345541970000003291011797995898045_" d="M371.13,354.62L299.89,478
			c-18.9,32.73,4.72,73.65,42.52,73.65h142.47c37.8,0,61.42-40.92,42.52-73.65l-71.23-123.38
			C437.27,321.89,390.03,321.89,371.13,354.62z"/>
	</defs>
	<use xlink:href="#XMLID_00000111181553175345541970000003291011797995898045_"  style="overflow:visible;fill:#FFFFFF;"/>
	<clipPath id="XMLID_00000083797006368943273150000000036722427559280573_">
		<use xlink:href="#XMLID_00000111181553175345541970000003291011797995898045_"  style="overflow:visible;"/>
	</clipPath>
	<path style="clip-path:url(#XMLID_00000083797006368943273150000000036722427559280573_);fill:#8DFFFC;" d="M529.17,500.23
		c-2.39-21.63-13.85-41.6-23.95-60.5c-9.93-18.57-20.8-36.64-32.57-54.12c-13.41-19.91-28.01-38.99-43.5-57.32
		c-4.56-5.4-14-4.3-18.51,0.42c-5.31,5.56-4.16,13.09,0.42,18.51c23.93,28.32,45.14,58.95,63.52,91.14
		c8.86,15.53,18.19,31.6,24.48,48.38c2.77,7.4,5.24,15.47,4.01,23.4c-1.12,7.2-4.25,11.6-9.78,16.68
		c-5.75,5.28-13.23,8.47-21.47,10.62c-10.35,2.7-21.02,3.29-31.66,3.95c-7.05,0.44-13.04,5.9-12.96,13.22
		c0.08,6.8,6.14,13.4,13.22,12.96c21.46-1.33,44.26-3.12,62.66-15.44C520.45,540.5,531.52,521.51,529.17,500.23z"/>
	<path style="clip-path:url(#XMLID_00000083797006368943273150000000036722427559280573_);fill:#8DFFFC;" d="M350.27,528.96
		c-10.07-6.36-19.03-17.08-23.04-27.66c-5.42-14.31-5.12-29.16,0.07-43.5c2.41-6.65-3.07-14.29-9.45-15.92
		c-7.42-1.89-13.5,2.78-15.92,9.45c-13.64,37.67,2.27,79.42,35.64,100.52c5.98,3.78,14.5,0.83,17.79-5.1
		C358.97,540.26,356.26,532.74,350.27,528.96z"/>
	<path style="clip-path:url(#XMLID_00000083797006368943273150000000036722427559280573_);fill:#8DFFFC;" d="M445.16,526.28
		c-7.79,0-7.65,12.08,0.12,12.08C453.08,538.37,452.94,526.28,445.16,526.28z"/>
	<path style="clip-path:url(#XMLID_00000083797006368943273150000000036722427559280573_);fill:#8DFFFC;" d="M480.12,502.64
		c-7.79,0-7.65,12.08,0.12,12.08C488.03,514.72,487.89,502.64,480.12,502.64z"/>
	<path style="clip-path:url(#XMLID_00000083797006368943273150000000036722427559280573_);fill:#8DFFFC;" d="M469.84,463.57
		c-7.79,0-7.65,12.08,0.12,12.08C477.75,475.65,477.61,463.57,469.84,463.57z"/>
	<path style="clip-path:url(#XMLID_00000083797006368943273150000000036722427559280573_);fill:#8DFFFC;" d="M451.33,494.41
		c-7.79,0-7.65,12.08,0.12,12.08C459.24,506.49,459.11,494.41,451.33,494.41z"/>
	<path style="clip-path:url(#XMLID_00000083797006368943273150000000036722427559280573_);fill:#8DFFFC;" d="M399.92,352.53
		c-7.79,0-7.65,12.08,0.12,12.08C407.84,364.61,407.7,352.53,399.92,352.53z"/>
	<path style="clip-path:url(#XMLID_00000083797006368943273150000000036722427559280573_);fill:#8DFFFC;" d="M386.56,377.2
		c-7.79,0-7.65,12.08,0.12,12.08C394.47,389.29,394.33,377.2,386.56,377.2z"/>
	<path style="clip-path:url(#XMLID_00000083797006368943273150000000036722427559280573_);fill:#8DFFFC;" d="M409.18,373.09
		c-7.79,0-7.65,12.08,0.12,12.08C417.09,385.17,416.95,373.09,409.18,373.09z"/>
	
		<use xlink:href="#XMLID_00000111181553175345541970000003291011797995898045_"  style="overflow:visible;fill:none;stroke:#000000;stroke-width:20.1347;stroke-linecap:round;stroke-linejoin:round;stroke-miterlimit:10;"/>
</g>
</svg>
