<?xml version="1.0" encoding="UTF-8"?>
<svg xmlns="http://www.w3.org/2000/svg" version="1.1" viewBox="0 0 519.9 362.12">
  <!-- Generator: Adobe Illustrator 29.4.0, SVG Export Plug-In . SVG Version: 2.1.0 Build 152)  -->
  <defs>
    <style>
      .st0 {
        fill: #0006ff;
      }

      .st1 {
        fill: #ffeb00;
      }

      .st2 {
        fill: none;
        stroke: #fff;
        stroke-miterlimit: 10;
        stroke-width: 1.01px;
      }

      .st3 {
        fill: #ff0006;
      }
    </style>
  </defs>
  <g id="CRUZ">
    <path class="st0" d="M437.57,42.38c-.43-.09-.87-.15-1.32-.15-2.06,0-3.94,1.14-4.93,3.02-.07.16-8.61,16.37-25.74,32.78-20.96,20.1-45.26,32.17-72.28,35.93,2.59-8.82,7.59-24.31,15.04-40.87,14.7-32.72,32.1-54.35,50.29-62.5,2.36-1.07,3.69-3.68,3.14-6.21-.55-2.54-2.82-4.37-5.39-4.37h-252.81c-2.77,0-5.15,2.07-5.51,4.82-.35,2.74,1.4,5.33,3.99,6.01,1.14.38,11.46,4.08,23.79,18.31,11.56,13.35,27.39,39.07,37.52,85.96-7.18-.86-19.91-3.1-34.86-8.88-21.71-8.4-52.69-26.22-77-63.41-1.34-2.01-3.85-2.98-6.21-2.26-2.36.71-3.94,2.84-3.94,5.29v254.97c0,2.45,1.58,4.58,3.93,5.29,2.34.7,4.87-.24,6.21-2.25.08-.12,8.8-12.94,27.64-26.53,16.38-11.85,44.36-27.01,85.12-32.51-1.44,8.54-4.6,23.75-10.94,40.29-8.69,22.67-25.34,52.61-55.3,66.48-2.35,1.08-3.64,3.7-3.07,6.21.55,2.51,2.81,4.33,5.39,4.33h256.3c2.54,0,4.75-1.72,5.38-4.19.6-2.45-.54-5-2.76-6.22-.14-.07-13.47-7.47-28.27-24.99-12.96-15.34-30.07-42.15-38.52-83.17,6.73.58,18.71,2.47,33.1,8.44,25.07,10.4,47.37,28.56,66.27,54.02,1.04,1.39,2.71,2.23,4.42,2.23.61,0,1.2-.11,1.75-.3,2.27-.75,3.78-2.86,3.78-5.24V47.76c0-2.58-1.74-4.79-4.21-5.38ZM434.91,298.72c-45.71-59.23-97.76-62.29-107.87-62.29-.9,0-1.4.04-1.4.04-.37.02-.72.21-.96.51-.23.29-.32.68-.26,1.06,13.15,74.79,54.5,108.31,67.57,117.22h-246c56.81-30.86,65.98-115.77,66.08-116.65.02-.4-.11-.8-.39-1.08-.3-.28-.69-.42-1.09-.39-75.51,7.83-112.9,47.9-122.39,59.68V50.27c25.02,36.35,56.14,54.03,78.18,62.49,24.68,9.49,43.08,9.78,43.86,9.78.4.02.78-.17,1.03-.48.27-.31.37-.72.3-1.11-10.4-53.36-28.12-82.2-41.15-96.99-8.24-9.35-15.63-14.42-20.5-17.07h240.93c-44.2,25.19-65.39,109.42-66.31,113.12-.1.41,0,.86.28,1.19.29.32.69.5,1.13.47,64.66-5.04,99.68-53.94,108.96-68.95v246Z"/>
    <path class="st1" d="M434.91,52.72v246c-45.71-59.23-97.76-62.29-107.87-62.29-.9,0-1.4.04-1.4.04-.37.02-.72.21-.96.51-.23.29-.32.68-.26,1.06,13.15,74.79,54.5,108.31,67.57,117.22h-246c56.81-30.86,65.98-115.77,66.08-116.65.02-.4-.11-.8-.39-1.08-.3-.28-.69-.42-1.09-.39-75.51,7.83-112.9,47.9-122.39,59.68V50.27c25.02,36.35,56.14,54.03,78.18,62.49,24.68,9.49,43.08,9.78,43.86,9.78.4.02.78-.17,1.03-.48.27-.31.37-.72.3-1.11-10.4-53.36-28.12-82.2-41.15-96.99-8.24-9.35-15.63-14.42-20.5-17.07h240.93c-44.2,25.19-65.39,109.42-66.31,113.12-.1.41,0,.86.28,1.19.29.32.69.5,1.13.47,64.66-5.04,99.68-53.94,108.96-68.95Z"/>
  </g>
  <g id="LETRAS">
    <g>
      <path class="st3" d="M64,181.59c2.53-1.18,5.24-1.76,8.12-1.75,1.35,0,2.25-.1,2.68-.3.31-.15.78-.46,1.4-.94.2-.16.44-.3.72-.43.9-.42,1.89-.37,2.95.15,2.6,1.24,4.6,3.35,5.99,6.34.98,2.1.97,3.97-.02,5.62-.54.88-1.29,1.55-2.27,2.01-.89.41-1.69.56-2.43.43-.73-.12-1.59-.55-2.56-1.28-1.38-1.02-2.45-1.73-3.2-2.11-.75-.38-1.57-.66-2.48-.83-2.23-.4-4.27-.17-6.11.69-1.79.83-2.91,2.14-3.35,3.92-.45,1.78-.17,3.76.84,5.93,1.39,2.99,3.42,5.37,6.08,7.15,3.59,2.36,7.3,2.65,11.12.88,1.41-.65,2.69-1.54,3.85-2.65,1.16-1.11,1.95-2.22,2.37-3.32.37-.93.76-1.49,1.18-1.69.61-.28,1.26-.24,1.96.12.7.36,1.23.94,1.6,1.74.47,1.01.69,2.28.66,3.81-.03,1.53-.3,2.85-.82,3.96-.23.46-.86,1.08-1.9,1.83-.6.43-1.33,1.16-2.18,2.19-2,2.43-4.38,4.29-7.16,5.58-2.9,1.35-6.09,2.04-9.58,2.08-4.05.05-7.78-1.04-11.18-3.26-3.32-2.15-5.76-4.88-7.3-8.2-1.79-3.85-2.23-7.93-1.32-12.22.8-3.73,2.53-7.1,5.21-10.12,2.03-2.3,4.41-4.08,7.11-5.34"/>
      <path class="st2" d="M64,181.59c2.53-1.18,5.24-1.76,8.12-1.75,1.35,0,2.25-.1,2.68-.3.31-.15.78-.46,1.4-.94.2-.16.44-.3.72-.43.9-.42,1.89-.37,2.95.15,2.6,1.24,4.6,3.35,5.99,6.34.98,2.1.97,3.97-.02,5.62-.54.88-1.29,1.55-2.27,2.01-.89.41-1.69.56-2.43.43-.73-.12-1.59-.55-2.56-1.28-1.38-1.02-2.45-1.73-3.2-2.11-.75-.38-1.57-.66-2.48-.83-2.23-.4-4.27-.17-6.11.69-1.79.83-2.91,2.14-3.35,3.92-.45,1.78-.17,3.76.84,5.93,1.39,2.99,3.42,5.37,6.08,7.15,3.59,2.36,7.3,2.65,11.12.88,1.41-.65,2.69-1.54,3.85-2.65,1.16-1.11,1.95-2.22,2.37-3.32.37-.93.76-1.49,1.18-1.69.61-.28,1.26-.24,1.96.12.7.36,1.23.94,1.6,1.74.47,1.01.69,2.28.66,3.81-.03,1.53-.3,2.85-.82,3.96-.23.46-.86,1.08-1.9,1.83-.6.43-1.33,1.16-2.18,2.19-2,2.43-4.38,4.29-7.16,5.58-2.9,1.35-6.09,2.04-9.58,2.08-4.05.05-7.78-1.04-11.18-3.26-3.32-2.15-5.76-4.88-7.3-8.2-1.79-3.85-2.23-7.93-1.32-12.22.8-3.73,2.53-7.1,5.21-10.12,2.03-2.3,4.41-4.08,7.11-5.34Z"/>
      <path class="st3" d="M110.9,187.92c-.69.24-1.05.6-1.1,1.08-.05.48.19,1.48.72,3,.8,2.3,1.56,4.04,2.3,5.22.22.33.45.56.7.7.25.14.68.26,1.29.38,1.29.22,2.11.82,2.45,1.8.41,1.19-.05,2.3-1.39,3.32-1.34,1.02-3.81,2.16-7.41,3.4-6.69,2.32-10.48,2.22-11.36-.32-.15-.43-.17-.82-.06-1.15.11-.33.43-.85.98-1.57.61-.8.94-1.61.97-2.42.03-.81-.2-2.11-.7-3.91-.36-1.32-1.91-5.94-4.66-13.86-.87-2.51-1.59-4.18-2.16-5-.57-.82-1.34-1.29-2.31-1.42-.93-.1-1.58-.27-1.96-.49-.38-.22-.66-.59-.84-1.09-.23-.67-.18-1.34.17-2.02.34-.68.93-1.29,1.78-1.85.71-.47,1.74-.94,3.1-1.41.6-.21,2.12-.63,4.57-1.28.47-.12,1.19-.35,2.16-.69,1.63-.57,3.76-1.43,6.4-2.58,1.67-.72,2.86-1.2,3.54-1.44,3.87-1.34,7.4-1.52,10.58-.54,2.86.89,4.81,2.83,5.85,5.82.58,1.66.7,3.32.38,4.96-.32,1.64-1.06,3.05-2.21,4.22-.48.49-.65.93-.51,1.33.18.53.77.8,1.77.82,2.14.03,3.89.59,5.26,1.67,1.37,1.09,2.74,3,4.12,5.75.58,1.14,1.08,1.83,1.51,2.08.43.25,1.26.34,2.5.27.38-.01.75.12,1.11.39.36.27.61.62.76,1.06.19.56.17,1.2-.06,1.92-.24.72-.64,1.36-1.22,1.93-1.27,1.23-3.23,2.31-5.87,3.22-3.53,1.22-6.38,1.17-8.54-.17-.98-.59-1.92-1.44-2.84-2.54-.92-1.1-2.17-2.88-3.75-5.33-1.01-1.57-1.96-2.6-2.85-3.09-.89-.48-1.94-.54-3.15-.18M104.52,174.63l1.89,6.43c.02.05.05.14.09.24.23.65.47,1.05.74,1.2.27.15.69.13,1.27-.07,1.59-.55,2.61-1.36,3.05-2.44.44-1.07.34-2.52-.28-4.32-1.21-3.49-3.06-4.81-5.53-3.95-.71.24-1.15.58-1.32,1.01-.18.43-.14,1.06.11,1.91"/>
      <path class="st2" d="M110.9,187.92c-.69.24-1.05.6-1.1,1.08-.05.48.19,1.48.72,3,.8,2.3,1.56,4.04,2.3,5.22.22.33.45.56.7.7.25.14.68.26,1.29.38,1.29.22,2.11.82,2.45,1.8.41,1.19-.05,2.3-1.39,3.32-1.34,1.02-3.81,2.16-7.41,3.4-6.69,2.32-10.48,2.22-11.36-.32-.15-.43-.17-.82-.06-1.15.11-.33.43-.85.98-1.57.61-.8.94-1.61.97-2.42.03-.81-.2-2.11-.7-3.91-.36-1.32-1.91-5.94-4.66-13.86-.87-2.51-1.59-4.18-2.16-5-.57-.82-1.34-1.29-2.31-1.42-.93-.1-1.58-.27-1.96-.49-.38-.22-.66-.59-.84-1.09-.23-.67-.18-1.34.17-2.02.34-.68.93-1.29,1.78-1.85.71-.47,1.74-.94,3.1-1.41.6-.21,2.12-.63,4.57-1.28.47-.12,1.19-.35,2.16-.69,1.63-.57,3.76-1.43,6.4-2.58,1.67-.72,2.86-1.2,3.54-1.44,3.87-1.34,7.4-1.52,10.58-.54,2.86.89,4.81,2.83,5.85,5.82.58,1.66.7,3.32.38,4.96-.32,1.64-1.06,3.05-2.21,4.22-.48.49-.65.93-.51,1.33.18.53.77.8,1.77.82,2.14.03,3.89.59,5.26,1.67,1.37,1.09,2.74,3,4.12,5.75.58,1.14,1.08,1.83,1.51,2.08.43.25,1.26.34,2.5.27.38-.01.75.12,1.11.39.36.27.61.62.76,1.06.19.56.17,1.2-.06,1.92-.24.72-.64,1.36-1.22,1.93-1.27,1.23-3.23,2.31-5.87,3.22-3.53,1.22-6.38,1.17-8.54-.17-.98-.59-1.92-1.44-2.84-2.54-.92-1.1-2.17-2.88-3.75-5.33-1.01-1.57-1.96-2.6-2.85-3.09-.89-.48-1.94-.54-3.15-.18ZM104.52,174.63l1.89,6.43c.02.05.05.14.09.24.23.65.47,1.05.74,1.2.27.15.69.13,1.27-.07,1.59-.55,2.61-1.36,3.05-2.44.44-1.07.34-2.52-.28-4.32-1.21-3.49-3.06-4.81-5.53-3.95-.71.24-1.15.58-1.32,1.01-.18.43-.14,1.06.11,1.91Z"/>
      <path class="st3" d="M174.64,161.53l1.62,6.82c.98,4.12,1.36,7.11,1.15,8.97-.47,3.93-2.75,7.23-6.86,9.92-2.48,1.65-5.44,2.88-8.86,3.7-5.98,1.42-11.11,1.13-15.38-.87-2.08-.98-3.68-2.32-4.79-4-1.11-1.69-2.08-4.27-2.9-7.75-.32-1.36-.81-3.61-1.45-6.74-.47-2.21-.78-3.67-.95-4.38-.37-1.55-.74-2.59-1.11-3.13-.37-.54-1.01-.98-1.92-1.32-1.42-.51-2.25-1.26-2.48-2.25-.17-.73-.01-1.44.48-2.15.49-.71,1.23-1.28,2.2-1.73,1.95-.9,4.33-1.67,7.12-2.34,3.07-.73,5.68-1.1,7.82-1.12,2.1-.03,3.34.75,3.71,2.34.19.78.04,1.48-.42,2.08-.1.14-.59.56-1.47,1.26-.53.4-.83.97-.88,1.71-.05.74.11,1.9.49,3.48.38,1.62,1.14,5.14,2.27,10.56.67,3.23,2.11,5.46,4.33,6.71,1.82,1.03,3.9,1.26,6.25.7,1.49-.35,2.78-.95,3.86-1.79,1.08-.84,1.82-1.8,2.23-2.91.33-.85.48-1.74.46-2.68-.03-.94-.22-2.18-.59-3.73l-1.46-6.15c-1.21-4.69-2-7.42-2.37-8.19-.37-.77-1.12-1.26-2.26-1.49-1.07-.2-1.82-.43-2.26-.7-.44-.27-.72-.67-.84-1.19-.27-1.12.21-2.09,1.42-2.92,1.21-.83,3.29-1.59,6.23-2.29,2.89-.68,5.04-.93,6.45-.73,1.41.2,2.25.84,2.51,1.94.13.54.11.97-.05,1.28-.16.31-.65.85-1.48,1.62-.86.79-1.28,1.53-1.26,2.2.01.68.49,3.09,1.43,7.23"/>
      <path class="st2" d="M174.64,161.53l1.62,6.82c.98,4.12,1.36,7.11,1.15,8.97-.47,3.93-2.75,7.23-6.86,9.92-2.48,1.65-5.44,2.88-8.86,3.7-5.98,1.42-11.11,1.13-15.38-.87-2.08-.98-3.68-2.32-4.79-4-1.11-1.69-2.08-4.27-2.9-7.75-.32-1.36-.81-3.61-1.45-6.74-.47-2.21-.78-3.67-.95-4.38-.37-1.55-.74-2.59-1.11-3.13-.37-.54-1.01-.98-1.92-1.32-1.42-.51-2.25-1.26-2.48-2.25-.17-.73-.01-1.44.48-2.15.49-.71,1.23-1.28,2.2-1.73,1.95-.9,4.33-1.67,7.12-2.34,3.07-.73,5.68-1.1,7.82-1.12,2.1-.03,3.34.75,3.71,2.34.19.78.04,1.48-.42,2.08-.1.14-.59.56-1.47,1.26-.53.4-.83.97-.88,1.71-.05.74.11,1.9.49,3.48.38,1.62,1.14,5.14,2.27,10.56.67,3.23,2.11,5.46,4.33,6.71,1.82,1.03,3.9,1.26,6.25.7,1.49-.35,2.78-.95,3.86-1.79,1.08-.84,1.82-1.8,2.23-2.91.33-.85.48-1.74.46-2.68-.03-.94-.22-2.18-.59-3.73l-1.46-6.15c-1.21-4.69-2-7.42-2.37-8.19-.37-.77-1.12-1.26-2.26-1.49-1.07-.2-1.82-.43-2.26-.7-.44-.27-.72-.67-.84-1.19-.27-1.12.21-2.09,1.42-2.92,1.21-.83,3.29-1.59,6.23-2.29,2.89-.68,5.04-.93,6.45-.73,1.41.2,2.25.84,2.51,1.94.13.54.11.97-.05,1.28-.16.31-.65.85-1.48,1.62-.86.79-1.28,1.53-1.26,2.2.01.68.49,3.09,1.43,7.23Z"/>
      <path class="st3" d="M215.44,145.78l-9.69,23.37c-1.09,2.66-1.61,4.23-1.54,4.73.12.87,1.46,1.14,4.05.79,1.01-.13,2.01-.38,3-.73,1-.36,1.71-.72,2.14-1.08.88-.77,1.66-2.27,2.33-4.48.27-.87.57-1.48.89-1.83.32-.35.78-.57,1.39-.65,1.33-.18,2.38.06,3.14.73.76.66,1.25,1.73,1.44,3.21.41,3.04-.04,5.79-1.33,8.26-.91,1.72-1.87,2.65-2.87,2.79-.29.04-.67.05-1.15.04-1.42-.08-2.75-.04-3.98.13l-24.74,3.3c-1.12.15-1.79.22-2.01.21-.22,0-.46-.11-.72-.31-.43-.35-.69-.85-.78-1.52-.08-.61.08-1.4.49-2.38l11.35-26.81c.34-.8.49-1.34.45-1.63-.14-1.08-1.3-1.48-3.46-1.19-1.86.25-3.16.73-3.91,1.45-.74.72-1.5,2.22-2.25,4.5-.58,1.76-1.39,2.71-2.43,2.85-1.01.13-1.96-.21-2.86-1.04-.9-.83-1.43-1.85-1.6-3.06-.26-1.94.24-4.37,1.49-7.3.89-2.05,1.68-3.12,2.38-3.22.17-.02.43,0,.76.07,1.19.25,3.73.11,7.62-.41,1.75-.23,5.72-.96,11.91-2.17,5.27-1.01,7.98-1.53,8.11-1.55.82-.11,1.51.04,2.07.45.57.41.9,1,1.01,1.78.07.51-.16,1.41-.68,2.7"/>
      <path class="st2" d="M215.44,145.78l-9.69,23.37c-1.09,2.66-1.61,4.23-1.54,4.73.12.87,1.46,1.14,4.05.79,1.01-.13,2.01-.38,3-.73,1-.36,1.71-.72,2.14-1.08.88-.77,1.66-2.27,2.33-4.48.27-.87.57-1.48.89-1.83.32-.35.78-.57,1.39-.65,1.33-.18,2.38.06,3.14.73.76.66,1.25,1.73,1.44,3.21.41,3.04-.04,5.79-1.33,8.26-.91,1.72-1.87,2.65-2.87,2.79-.29.04-.67.05-1.15.04-1.42-.08-2.75-.04-3.98.13l-24.74,3.3c-1.12.15-1.79.22-2.01.21-.22,0-.46-.11-.72-.31-.43-.35-.69-.85-.78-1.52-.08-.61.08-1.4.49-2.38l11.35-26.81c.34-.8.49-1.34.45-1.63-.14-1.08-1.3-1.48-3.46-1.19-1.86.25-3.16.73-3.91,1.45-.74.72-1.5,2.22-2.25,4.5-.58,1.76-1.39,2.71-2.43,2.85-1.01.13-1.96-.21-2.86-1.04-.9-.83-1.43-1.85-1.6-3.06-.26-1.94.24-4.37,1.49-7.3.89-2.05,1.68-3.12,2.38-3.22.17-.02.43,0,.76.07,1.19.25,3.73.11,7.62-.41,1.75-.23,5.72-.96,11.91-2.17,5.27-1.01,7.98-1.53,8.11-1.55.82-.11,1.51.04,2.07.45.57.41.9,1,1.01,1.78.07.51-.16,1.41-.68,2.7Z"/>
      <path class="st3" d="M250.85,178.5h-2.07c-1.21-.01-2.56.04-4.05.15-.94.07-1.59.11-1.95.11-1.28,0-2.33-.31-3.13-.9-.8-.6-1.2-1.37-1.2-2.33,0-.67.18-1.19.54-1.56.36-.37.94-.67,1.74-.9.77-.19,1.28-.5,1.55-.93.27-.43.48-1.27.64-2.51.16-1.44.31-4.23.45-8.38.14-4.15.21-8.28.23-12.38,0-1.61-.12-2.68-.36-3.22-.25-.54-.83-.97-1.75-1.3-1.32-.5-1.98-1.36-1.97-2.56,0-.94.46-1.67,1.37-2.19.91-.52,2.18-.78,3.81-.78.54,0,1.17.01,1.9.03,1.61.06,2.78.1,3.5.1,2.74,0,5.83-.07,9.28-.23.73-.04,1.64-.05,2.73-.05,4.39.02,7.85.53,10.39,1.53,3.79,1.51,6.63,4.02,8.53,7.55,1.69,3.11,2.53,6.81,2.52,11.1,0,2.16-.33,4.33-.97,6.5-.64,2.17-1.5,4.05-2.58,5.64-2.23,3.21-5.3,5.46-9.21,6.75-2.3.76-4.75,1.13-7.36,1.12l-3.48-.13-2.99-.1c-2.32-.08-4.36-.13-6.12-.14M256.98,147.39l-.08,22.23c0,1.21.25,2.06.77,2.57.52.51,1.38.77,2.58.77,5.59.02,8.4-4.22,8.43-12.72.02-4.69-.62-8.33-1.92-10.92-1.43-2.86-3.85-4.29-7.28-4.3-.92,0-1.57.18-1.94.54-.38.36-.56.97-.57,1.84"/>
      <path class="st2" d="M250.85,178.5h-2.07c-1.21-.01-2.56.04-4.05.15-.94.07-1.59.11-1.95.11-1.28,0-2.33-.31-3.13-.9-.8-.6-1.2-1.37-1.2-2.33,0-.67.18-1.19.54-1.56.36-.37.94-.67,1.74-.9.77-.19,1.28-.5,1.55-.93.27-.43.48-1.27.64-2.51.16-1.44.31-4.23.45-8.38.14-4.15.21-8.28.23-12.38,0-1.61-.12-2.68-.36-3.22-.25-.54-.83-.97-1.75-1.3-1.32-.5-1.98-1.36-1.97-2.56,0-.94.46-1.67,1.37-2.19.91-.52,2.18-.78,3.81-.78.54,0,1.17.01,1.9.03,1.61.06,2.78.1,3.5.1,2.74,0,5.83-.07,9.28-.23.73-.04,1.64-.05,2.73-.05,4.39.02,7.85.53,10.39,1.53,3.79,1.51,6.63,4.02,8.53,7.55,1.69,3.11,2.53,6.81,2.52,11.1,0,2.16-.33,4.33-.97,6.5-.64,2.17-1.5,4.05-2.58,5.64-2.23,3.21-5.3,5.46-9.21,6.75-2.3.76-4.75,1.13-7.36,1.12l-3.48-.13-2.99-.1c-2.32-.08-4.36-.13-6.12-.14ZM256.98,147.39l-.08,22.23c0,1.21.25,2.06.77,2.57.52.51,1.38.77,2.58.77,5.59.02,8.4-4.22,8.43-12.72.02-4.69-.62-8.33-1.92-10.92-1.43-2.86-3.85-4.29-7.28-4.3-.92,0-1.57.18-1.94.54-.38.36-.56.97-.57,1.84Z"/>
      <path class="st3" d="M295.11,140.52l14.68,1.58c2.97.32,5.14.49,6.52.52,1.37.02,2.73-.09,4.07-.33.41-.07.73-.09.96-.07.99.11,1.81.73,2.45,1.88,1.07,1.87,1.47,4.03,1.21,6.48-.13,1.24-.5,2.19-1.1,2.84-.6.66-1.36.94-2.27.84-.63-.07-1.1-.25-1.43-.54-.32-.29-.73-.92-1.23-1.88-.7-1.36-1.67-2.33-2.91-2.9-1.24-.57-3.33-1.01-6.26-1.33-2.19-.24-3.56,0-4.12.74-.29.39-.5.94-.62,1.64-.12.7-.34,2.49-.65,5.39-.12,1.14,0,1.87.34,2.19.35.32,1.34.56,2.95.74.8.09,1.4-.02,1.8-.31.4-.29.69-.86.88-1.71.25-1.09.47-1.83.66-2.23.19-.39.49-.72.9-.99.44-.3.92-.42,1.45-.36.78.08,1.41.53,1.88,1.33.34.6.57,1.61.7,3.04.13,1.43.11,2.9-.06,4.43-.32,3.01-1.06,5.42-2.2,7.25-.63.99-1.46,1.43-2.51,1.32-.65-.07-1.08-.28-1.29-.64-.21-.36-.33-1.07-.35-2.13-.05-2.18-1.19-3.39-3.42-3.63-.86-.09-1.47.11-1.84.62-.37.51-.64,1.5-.8,2.96-.1.89-.16,2.06-.19,3.49-.03,1.43,0,2.38.08,2.85.09.59.52,1.03,1.29,1.34.77.3,2.07.56,3.92.76,2.86.31,5.05.17,6.57-.4,1.53-.58,2.85-1.78,3.97-3.6.65-1.05,1.21-1.74,1.68-2.07.47-.33,1.05-.47,1.73-.39.8.09,1.42.51,1.87,1.26.45.75.62,1.65.5,2.7-.12,1.14-.57,2.54-1.35,4.19-.77,1.65-1.66,3.09-2.66,4.33-.51.6-.92.99-1.23,1.18-.31.19-.68.26-1.12.21-.36-.04-.88-.15-1.55-.34-1.19-.36-2.81-.68-4.84-.96l-24.22-2.61c-.97-.1-1.7-.4-2.19-.89-.49-.49-.69-1.12-.6-1.9.06-.55.22-.94.47-1.16.26-.22.81-.48,1.67-.77.6-.19,1.05-.44,1.37-.78.31-.33.59-.84.81-1.53.94-2.81,1.67-6.65,2.2-11.52.79-7.35.84-12.03.13-14.05-.15-.4-.33-.69-.54-.87-.21-.18-.67-.41-1.37-.7-1.05-.44-1.52-1.22-1.39-2.35.07-.61.31-1.13.72-1.57.41-.44.92-.7,1.53-.79.76-.09,2.21-.02,4.34.21"/>
      <path class="st2" d="M295.11,140.52l14.68,1.58c2.97.32,5.14.49,6.52.52,1.37.02,2.73-.09,4.07-.33.41-.07.73-.09.96-.07.99.11,1.81.73,2.45,1.88,1.07,1.87,1.47,4.03,1.21,6.48-.13,1.24-.5,2.19-1.1,2.84-.6.66-1.36.94-2.27.84-.63-.07-1.1-.25-1.43-.54-.32-.29-.73-.92-1.23-1.88-.7-1.36-1.67-2.33-2.91-2.9-1.24-.57-3.33-1.01-6.26-1.33-2.19-.24-3.56,0-4.12.74-.29.39-.5.94-.62,1.64-.12.7-.34,2.49-.65,5.39-.12,1.14,0,1.87.34,2.19.35.32,1.34.56,2.95.74.8.09,1.4-.02,1.8-.31.4-.29.69-.86.88-1.71.25-1.09.47-1.83.66-2.23.19-.39.49-.72.9-.99.44-.3.92-.42,1.45-.36.78.08,1.41.53,1.88,1.33.34.6.57,1.61.7,3.04.13,1.43.11,2.9-.06,4.43-.32,3.01-1.06,5.42-2.2,7.25-.63.99-1.46,1.43-2.51,1.32-.65-.07-1.08-.28-1.29-.64-.21-.36-.33-1.07-.35-2.13-.05-2.18-1.19-3.39-3.42-3.63-.86-.09-1.47.11-1.84.62-.37.51-.64,1.5-.8,2.96-.1.89-.16,2.06-.19,3.49-.03,1.43,0,2.38.08,2.85.09.59.52,1.03,1.29,1.34.77.3,2.07.56,3.92.76,2.86.31,5.05.17,6.57-.4,1.53-.58,2.85-1.78,3.97-3.6.65-1.05,1.21-1.74,1.68-2.07.47-.33,1.05-.47,1.73-.39.8.09,1.42.51,1.87,1.26.45.75.62,1.65.5,2.7-.12,1.14-.57,2.54-1.35,4.19-.77,1.65-1.66,3.09-2.66,4.33-.51.6-.92.99-1.23,1.18-.31.19-.68.26-1.12.21-.36-.04-.88-.15-1.55-.34-1.19-.36-2.81-.68-4.84-.96l-24.22-2.61c-.97-.1-1.7-.4-2.19-.89-.49-.49-.69-1.12-.6-1.9.06-.55.22-.94.47-1.16.26-.22.81-.48,1.67-.77.6-.19,1.05-.44,1.37-.78.31-.33.59-.84.81-1.53.94-2.81,1.67-6.65,2.2-11.52.79-7.35.84-12.03.13-14.05-.15-.4-.33-.69-.54-.87-.21-.18-.67-.41-1.37-.7-1.05-.44-1.52-1.22-1.39-2.35.07-.61.31-1.13.72-1.57.41-.44.92-.7,1.53-.79.76-.09,2.21-.02,4.34.21Z"/>
      <path class="st3" d="M369.69,152.06c4.78,1.19,8.61,3.59,11.49,7.21,1.95,2.48,3.3,5.4,4.06,8.77.73,3.34.72,6.49-.02,9.47-1.09,4.39-3.52,7.94-7.28,10.68-3.18,2.33-6.91,3.64-11.19,3.93-2.63.17-5.17-.04-7.62-.65-3.22-.8-6.12-2.23-8.73-4.3-3.15-2.5-5.32-5.64-6.51-9.4-1.16-3.64-1.27-7.37-.32-11.18,1.1-4.42,3.33-8.01,6.68-10.77,2.98-2.45,6.53-3.92,10.65-4.39,2.77-.34,5.69-.12,8.78.65M365.05,159.4c-1.56-.39-2.97,0-4.23,1.17-.97.86-1.63,2.01-1.98,3.44-.52,2.1-.7,4.63-.53,7.61.17,2.97.64,5.69,1.41,8.15.35,1.05.88,1.96,1.59,2.71.71.75,1.5,1.23,2.38,1.45,1.41.35,2.68.1,3.81-.74,1.13-.84,1.91-2.13,2.34-3.86.56-2.25.8-4.76.72-7.55-.08-2.78-.46-5.24-1.16-7.36-.42-1.31-1.02-2.4-1.79-3.29-.77-.88-1.62-1.46-2.56-1.73"/>
      <path class="st2" d="M369.69,152.06c4.78,1.19,8.61,3.59,11.49,7.21,1.95,2.48,3.3,5.4,4.06,8.77.73,3.34.72,6.49-.02,9.47-1.09,4.39-3.52,7.94-7.28,10.68-3.18,2.33-6.91,3.64-11.19,3.93-2.63.17-5.17-.04-7.62-.65-3.22-.8-6.12-2.23-8.73-4.3-3.15-2.5-5.32-5.64-6.51-9.4-1.16-3.64-1.27-7.37-.32-11.18,1.1-4.42,3.33-8.01,6.68-10.77,2.98-2.45,6.53-3.92,10.65-4.39,2.77-.34,5.69-.12,8.78.65ZM365.05,159.4c-1.56-.39-2.97,0-4.23,1.17-.97.86-1.63,2.01-1.98,3.44-.52,2.1-.7,4.63-.53,7.61.17,2.97.64,5.69,1.41,8.15.35,1.05.88,1.96,1.59,2.71.71.75,1.5,1.23,2.38,1.45,1.41.35,2.68.1,3.81-.74,1.13-.84,1.91-2.13,2.34-3.86.56-2.25.8-4.76.72-7.55-.08-2.78-.46-5.24-1.16-7.36-.42-1.31-1.02-2.4-1.79-3.29-.77-.88-1.62-1.46-2.56-1.73Z"/>
      <path class="st3" d="M405.34,187.37c-.68-.25-1.2-.2-1.54.15-.34.35-.78,1.27-1.33,2.79-.83,2.29-1.33,4.12-1.51,5.5-.04.39,0,.72.1.98.11.26.36.63.76,1.1.86.99,1.12,1.96.77,2.94-.43,1.19-1.49,1.76-3.17,1.71-1.68-.05-4.31-.73-7.9-2.02-6.66-2.42-9.53-4.88-8.62-7.4.16-.43.38-.74.67-.93.29-.19.87-.39,1.75-.6.98-.23,1.74-.66,2.28-1.27.54-.61,1.18-1.77,1.92-3.47.55-1.25,2.26-5.81,5.12-13.69.91-2.5,1.4-4.25,1.47-5.24.07-.99-.23-1.84-.9-2.56-.66-.67-1.06-1.2-1.22-1.62-.16-.41-.14-.87.04-1.38.24-.67.71-1.15,1.4-1.46.69-.31,1.54-.41,2.54-.32.85.08,1.94.37,3.29.86.59.22,2.05.84,4.36,1.89.44.2,1.14.48,2.11.83,1.62.59,3.82,1.26,6.6,2.03,1.76.49,2.98.86,3.66,1.11,3.85,1.4,6.7,3.48,8.55,6.25,1.66,2.5,1.95,5.23.88,8.2-.6,1.66-1.54,3.02-2.83,4.09-1.29,1.07-2.74,1.7-4.38,1.88-.68.08-1.09.32-1.24.71-.19.52.1,1.11.86,1.75,1.64,1.37,2.65,2.91,3.03,4.61.38,1.71.24,4.06-.42,7.06-.27,1.25-.31,2.1-.14,2.56.18.46.77,1.06,1.77,1.79.3.23.51.57.61,1,.11.44.08.87-.08,1.3-.2.56-.62,1.04-1.26,1.45-.64.41-1.36.65-2.16.73-1.77.15-3.96-.25-6.59-1.2-3.51-1.27-5.68-3.11-6.52-5.51-.38-1.08-.59-2.33-.61-3.76-.02-1.43.13-3.6.45-6.5.21-1.86.12-3.26-.27-4.19-.38-.93-1.16-1.64-2.33-2.13M408.76,173.03l-2.58,6.18c-.02.05-.05.13-.09.24-.23.65-.3,1.11-.19,1.4.11.28.45.53,1.03.74,1.58.57,2.88.58,3.9.02,1.02-.56,1.85-1.74,2.5-3.54,1.26-3.47.66-5.66-1.81-6.55-.7-.26-1.26-.27-1.66-.05-.41.22-.78.74-1.11,1.55"/>
      <path class="st2" d="M405.34,187.37c-.68-.25-1.2-.2-1.54.15-.34.35-.78,1.27-1.33,2.79-.83,2.29-1.33,4.12-1.51,5.5-.04.39,0,.72.1.98.11.26.36.63.76,1.1.86.99,1.12,1.96.77,2.94-.43,1.19-1.49,1.76-3.17,1.71-1.68-.05-4.31-.73-7.9-2.02-6.66-2.42-9.53-4.88-8.62-7.4.16-.43.38-.74.67-.93.29-.19.87-.39,1.75-.6.98-.23,1.74-.66,2.28-1.27.54-.61,1.18-1.77,1.92-3.47.55-1.25,2.26-5.81,5.12-13.69.91-2.5,1.4-4.25,1.47-5.24.07-.99-.23-1.84-.9-2.56-.66-.67-1.06-1.2-1.22-1.62-.16-.41-.14-.87.04-1.38.24-.67.71-1.15,1.4-1.46.69-.31,1.54-.41,2.54-.32.85.08,1.94.37,3.29.86.59.22,2.05.84,4.36,1.89.44.2,1.14.48,2.11.83,1.62.59,3.82,1.26,6.6,2.03,1.76.49,2.98.86,3.66,1.11,3.85,1.4,6.7,3.48,8.55,6.25,1.66,2.5,1.95,5.23.88,8.2-.6,1.66-1.54,3.02-2.83,4.09-1.29,1.07-2.74,1.7-4.38,1.88-.68.08-1.09.32-1.24.71-.19.52.1,1.11.86,1.75,1.64,1.37,2.65,2.91,3.03,4.61.38,1.71.24,4.06-.42,7.06-.27,1.25-.31,2.1-.14,2.56.18.46.77,1.06,1.77,1.79.3.23.51.57.61,1,.11.44.08.87-.08,1.3-.2.56-.62,1.04-1.26,1.45-.64.41-1.36.65-2.16.73-1.77.15-3.96-.25-6.59-1.2-3.51-1.27-5.68-3.11-6.52-5.51-.38-1.08-.59-2.33-.61-3.76-.02-1.43.13-3.6.45-6.5.21-1.86.12-3.26-.27-4.19-.38-.93-1.16-1.64-2.33-2.13ZM408.76,173.03l-2.58,6.18c-.02.05-.05.13-.09.24-.23.65-.3,1.11-.19,1.4.11.28.45.53,1.03.74,1.58.57,2.88.58,3.9.02,1.02-.56,1.85-1.74,2.5-3.54,1.26-3.47.66-5.66-1.81-6.55-.7-.26-1.26-.27-1.66-.05-.41.22-.78.74-1.11,1.55Z"/>
      <path class="st3" d="M459.83,184.55c4.45,2.11,7.72,5.23,9.84,9.35,1.42,2.81,2.17,5.95,2.25,9.4.05,3.42-.58,6.51-1.89,9.28-1.94,4.08-5.02,7.09-9.25,9.03-3.58,1.65-7.5,2.19-11.75,1.64-2.61-.35-5.06-1.07-7.34-2.15-2.99-1.42-5.56-3.4-7.7-5.95-2.59-3.07-4.1-6.58-4.52-10.51-.42-3.8.21-7.48,1.9-11.02,1.95-4.12,4.85-7.19,8.68-9.23,3.41-1.82,7.18-2.55,11.31-2.2,2.78.22,5.6,1.01,8.48,2.37M453.83,190.83c-1.45-.69-2.91-.59-4.37.31-1.12.66-1.99,1.65-2.62,2.98-.93,1.96-1.6,4.41-2.03,7.35-.42,2.95-.5,5.7-.24,8.27.13,1.1.47,2.09,1.02,2.97.55.87,1.23,1.51,2.04,1.89,1.31.62,2.61.63,3.88.03,1.27-.6,2.29-1.71,3.06-3.32.99-2.09,1.73-4.51,2.2-7.25.48-2.74.58-5.22.32-7.45-.16-1.37-.52-2.56-1.1-3.57-.58-1.02-1.3-1.75-2.16-2.2"/>
      <path class="st2" d="M459.83,184.55c4.45,2.11,7.72,5.23,9.84,9.35,1.42,2.81,2.17,5.95,2.25,9.4.05,3.42-.58,6.51-1.89,9.28-1.94,4.08-5.02,7.09-9.25,9.03-3.58,1.65-7.5,2.19-11.75,1.64-2.61-.35-5.06-1.07-7.34-2.15-2.99-1.42-5.56-3.4-7.7-5.95-2.59-3.07-4.1-6.58-4.52-10.51-.42-3.8.21-7.48,1.9-11.02,1.95-4.12,4.85-7.19,8.68-9.23,3.41-1.82,7.18-2.55,11.31-2.2,2.78.22,5.6,1.01,8.48,2.37ZM453.83,190.83c-1.45-.69-2.91-.59-4.37.31-1.12.66-1.99,1.65-2.62,2.98-.93,1.96-1.6,4.41-2.03,7.35-.42,2.95-.5,5.7-.24,8.27.13,1.1.47,2.09,1.02,2.97.55.87,1.23,1.51,2.04,1.89,1.31.62,2.61.63,3.88.03,1.27-.6,2.29-1.71,3.06-3.32.99-2.09,1.73-4.51,2.2-7.25.48-2.74.58-5.22.32-7.45-.16-1.37-.52-2.56-1.1-3.57-.58-1.02-1.3-1.75-2.16-2.2Z"/>
    </g>
  </g>
</svg>