<svg id="a9e5a77c-897a-44c2-9da8-32a68853d5cd" data-name="Capa 1" xmlns="http://www.w3.org/2000/svg" xmlns:xlink="http://www.w3.org/1999/xlink" viewBox="0 0 1783.39 434.14"><defs><style>.bcdaedf8-d4a4-4415-b354-bd77693a36e6{fill:#fff;}.b0c8b657-5544-4169-8d9a-8638488fe01c{fill:url(#b2d9b17a-c179-441b-beab-e3f1a9fdef64);}.af666220-1818-429b-8af3-6d3decb17863{fill:url(#a5846158-4445-4f88-859b-611709c76ace);}.f77470ca-8741-4ceb-9d0c-7a8978c874d0{fill:url(#b9337d59-7b62-42e9-9753-fead4cd8da0f);}.a3e0369c-5e19-4429-ab4a-69f171f7586e{fill:url(#a4477a17-844f-4b7f-adbd-2c090e660568);}.aeb97e6c-dea7-434f-9fc0-3de7036a4185{fill:url(#be2192ff-254b-4672-8ffa-df9f4662777d);}.b3b43e9a-1d02-4977-8a2c-9d5b160a8a36{fill:url(#bfbb1c23-cbe0-41f2-b784-0b580601add4);}.a9680226-eeb8-427a-b1e8-17d54c54d0bc{fill:url(#eaf50242-8f18-418f-9285-5b12a0d0b4c8);}.b6d7026d-a02f-4c61-a854-09a3ef6d9924{fill:url(#a8426196-76e3-40f1-a7e3-9df82361767c);}.bfebc059-cbb7-4f59-bd7a-12336a14a0f9{fill:url(#ac72b5c2-3c73-47a0-b840-e7a57d0e690e);}</style><linearGradient id="b2d9b17a-c179-441b-beab-e3f1a9fdef64" x1="98.24" y1="478.03" x2="98.24" y2="660.52" gradientUnits="userSpaceOnUse"><stop offset="0" stop-color="#fff"/><stop offset="0" stop-color="#fff3f3"/><stop offset="0.03" stop-color="#ffc1c1"/><stop offset="0.05" stop-color="#ff9393"/><stop offset="0.08" stop-color="#ff6c6c"/><stop offset="0.1" stop-color="#ff4b4b"/><stop offset="0.13" stop-color="#ff3030"/><stop offset="0.16" stop-color="#ff1b1b"/><stop offset="0.2" stop-color="#ff0c0c"/><stop offset="0.24" stop-color="#ff0404"/><stop offset="0.3" stop-color="#ff0101"/></linearGradient><linearGradient id="a5846158-4445-4f88-859b-611709c76ace" x1="262.37" y1="478.03" x2="262.37" y2="660.52" xlink:href="#b2d9b17a-c179-441b-beab-e3f1a9fdef64"/><linearGradient id="b9337d59-7b62-42e9-9753-fead4cd8da0f" x1="481.72" y1="478.03" x2="481.72" y2="660.52" xlink:href="#b2d9b17a-c179-441b-beab-e3f1a9fdef64"/><linearGradient id="a4477a17-844f-4b7f-adbd-2c090e660568" x1="716.14" y1="478.03" x2="716.14" y2="660.52" xlink:href="#b2d9b17a-c179-441b-beab-e3f1a9fdef64"/><linearGradient id="be2192ff-254b-4672-8ffa-df9f4662777d" x1="919.86" y1="478.03" x2="919.86" y2="660.52" gradientUnits="userSpaceOnUse"><stop offset="0" stop-color="#fff"/><stop offset="0" stop-color="#fffef9"/><stop offset="0.02" stop-color="#fef2c7"/><stop offset="0.05" stop-color="#fee799"/><stop offset="0.07" stop-color="#fddd72"/><stop offset="0.1" stop-color="#fdd651"/><stop offset="0.13" stop-color="#fdcf36"/><stop offset="0.16" stop-color="#fcca21"/><stop offset="0.2" stop-color="#fcc712"/><stop offset="0.24" stop-color="#fcc50a"/><stop offset="0.3" stop-color="#fcc407"/></linearGradient><linearGradient id="bfbb1c23-cbe0-41f2-b784-0b580601add4" x1="1116.06" y1="478.03" x2="1116.06" y2="660.52" xlink:href="#be2192ff-254b-4672-8ffa-df9f4662777d"/><linearGradient id="eaf50242-8f18-418f-9285-5b12a0d0b4c8" x1="1326.22" y1="478.03" x2="1326.22" y2="660.52" xlink:href="#be2192ff-254b-4672-8ffa-df9f4662777d"/><linearGradient id="a8426196-76e3-40f1-a7e3-9df82361767c" x1="1511.87" y1="478.03" x2="1511.87" y2="660.52" xlink:href="#b2d9b17a-c179-441b-beab-e3f1a9fdef64"/><linearGradient id="ac72b5c2-3c73-47a0-b840-e7a57d0e690e" x1="1691.49" y1="478.03" x2="1691.49" y2="660.52" xlink:href="#b2d9b17a-c179-441b-beab-e3f1a9fdef64"/></defs><title>logo indusalca 2</title><path class="bcdaedf8-d4a4-4415-b354-bd77693a36e6" d="M46.22,816.43,70.71,699.5h24L70.31,816.43Z" transform="translate(-32.61 -472.44)"/><path d="M94.72,699.5,70.31,816.43H46.22L70.71,699.5h24m0-13.61h-24a13.6,13.6,0,0,0-13.32,10.82L32.9,813.64A13.62,13.62,0,0,0,46.22,830H70.31a13.6,13.6,0,0,0,13.32-10.83L108,702.28a13.6,13.6,0,0,0-13.32-16.39Zm0,27.22h0Z" transform="translate(-32.61 -472.44)"/><path class="bcdaedf8-d4a4-4415-b354-bd77693a36e6" d="M104.79,731.72h21.7l-2.24,11a59.58,59.58,0,0,1,15.2-10,37.76,37.76,0,0,1,14.87-3q10.45,0,16.47,6t6,15.87q0,4.47-2.64,16.91l-10,47.94H141.32l10.05-48.1q2.24-10.77,2.24-12.84a9.17,9.17,0,0,0-2.6-6.9,9.93,9.93,0,0,0-7.21-2.51q-5,0-11.17,4.23A29.32,29.32,0,0,0,123,761.47q-2.55,4.95-5.74,20.18L110,816.43H87.09Z" transform="translate(-32.61 -472.44)"/><path d="M154.32,729.73q10.45,0,16.47,6t6,15.87q0,4.47-2.64,16.91l-10,47.94H141.32l10.05-48.1q2.24-10.77,2.24-12.84a9.17,9.17,0,0,0-2.6-6.9,9.93,9.93,0,0,0-7.21-2.51q-5,0-11.17,4.23A29.32,29.32,0,0,0,123,761.47q-2.55,4.95-5.74,20.18L110,816.43H87.09l17.7-84.71h21.7l-2.24,11a59.58,59.58,0,0,1,15.2-10,37.76,37.76,0,0,1,14.87-3m0-13.61a51.24,51.24,0,0,0-20.18,4.07l-.26.1a13.6,13.6,0,0,0-7.39-2.18h-21.7a13.61,13.61,0,0,0-13.32,10.83l-17.71,84.7A13.62,13.62,0,0,0,87.09,830H110a13.6,13.6,0,0,0,13.32-10.83l7.26-34.78c2.67-12.76,4.23-16.16,4.51-16.71a17.17,17.17,0,0,1,3.51-4.79q-.24,1.2-.54,2.64l-10,48.07A13.62,13.62,0,0,0,141.32,830h22.89a13.62,13.62,0,0,0,13.33-10.84l10-47.94c2.59-12.21,2.92-16.94,2.92-19.68,0-10.17-3.47-19-10-25.53-4.57-4.53-12.79-9.93-26.07-9.93Z" transform="translate(-32.61 -472.44)"/><path class="bcdaedf8-d4a4-4415-b354-bd77693a36e6" d="M259.08,816.43h-21.7l1.92-9.17a42.24,42.24,0,0,1-12.25,8.57,34,34,0,0,1-13.6,2.59q-13.15,0-21.33-9t-8.18-26.52a62.66,62.66,0,0,1,11.49-36.77q11.48-16.44,30.39-16.43,17.06,0,25.6,13.56l9.17-43.79h22.89ZM206.19,782q0,9.09,4.59,14.2a14.59,14.59,0,0,0,11.29,5.1,18.35,18.35,0,0,0,11.6-4.26q5.39-4.28,8.62-13a48.75,48.75,0,0,0,3.23-16.83q0-9.18-5-14.84t-11.4-5.66q-10,0-16.51,11.16A47.43,47.43,0,0,0,206.19,782Z" transform="translate(-32.61 -472.44)"/><path d="M283.48,699.5l-24.4,116.93h-21.7l1.92-9.17a42.24,42.24,0,0,1-12.25,8.57,34,34,0,0,1-13.6,2.59q-13.15,0-21.33-9t-8.18-26.52a62.66,62.66,0,0,1,11.49-36.77q11.48-16.44,30.39-16.43,17.06,0,25.6,13.56l9.17-43.79h22.89M222.07,801.27a18.35,18.35,0,0,0,11.6-4.26q5.39-4.28,8.62-13a48.75,48.75,0,0,0,3.23-16.83q0-9.18-5-14.84t-11.4-5.66q-10,0-16.51,11.16A47.43,47.43,0,0,0,206.19,782q0,9.09,4.59,14.2a14.59,14.59,0,0,0,11.29,5.1m61.41-115.38H260.59a13.6,13.6,0,0,0-13.32,10.82L242.59,719a46.94,46.94,0,0,0-16.77-2.91c-17,0-31.38,7.69-41.55,22.24a76.34,76.34,0,0,0-13.94,44.57c0,15.14,3.94,27.15,11.72,35.69,8,8.77,18.86,13.41,31.4,13.41a48,48,0,0,0,18.07-3.32,13.52,13.52,0,0,0,5.86,1.33h21.7a13.61,13.61,0,0,0,13.32-10.83l24.41-116.93a13.6,13.6,0,0,0-13.33-16.39Zm0,27.22h0Zm-61.41,74.55c-.52,0-.63,0-1.16-.59-.69-.77-1.1-2.67-1.1-5.1a33.72,33.72,0,0,1,4.63-17.35c2.53-4.37,4.12-4.37,4.73-4.37h0a3.5,3.5,0,0,1,1.15,1c.39.45,1.58,1.82,1.58,5.89a35.31,35.31,0,0,1-2.39,12.12c-1.23,3.35-2.75,5.86-4.29,7.08a4.82,4.82,0,0,1-3.15,1.32Z" transform="translate(-32.61 -472.44)"/><path class="bcdaedf8-d4a4-4415-b354-bd77693a36e6" d="M292.44,731.72h22.89l-10.44,50.17q-1.92,9-1.92,11.25a8.48,8.48,0,0,0,2.71,6.3,9.57,9.57,0,0,0,6.94,2.63,16.06,16.06,0,0,0,6-1.16,25.76,25.76,0,0,0,6.07-3.51,32.28,32.28,0,0,0,5.58-5.38,34,34,0,0,0,4.62-8,73.82,73.82,0,0,0,3.28-12l8.45-40.36h22.89l-17.71,84.71H330.41l2.39-11.49q-14,13.48-30.55,13.48-10.44,0-16.43-6t-6-16q0-4.39,2.71-17.47Z" transform="translate(-32.61 -472.44)"/><path d="M369.49,731.72h0m0,0-17.71,84.71H330.41l2.39-11.49q-14,13.48-30.55,13.48-10.44,0-16.43-6t-6-16q0-4.39,2.71-17.47l9.89-47.22h22.89l-10.44,50.17q-1.92,9-1.92,11.25a8.48,8.48,0,0,0,2.71,6.3,9.57,9.57,0,0,0,6.94,2.63,16.06,16.06,0,0,0,6-1.16,25.76,25.76,0,0,0,6.07-3.51,32.28,32.28,0,0,0,5.58-5.38,34,34,0,0,0,4.62-8,73.82,73.82,0,0,0,3.28-12l8.45-40.36h22.89m0-13.61H346.6a13.61,13.61,0,0,0-13.32,10.82l-8.46,40.36a59.59,59.59,0,0,1-2.53,9.56,16.53,16.53,0,0,1-4.18,6.29l.09-.42,10.46-50.22a13.61,13.61,0,0,0-13.33-16.39H292.44a13.61,13.61,0,0,0-13.32,10.82l-9.89,47.22c-2.66,12.83-3,17.57-3,20.26,0,10.26,3.44,19.13,10,25.66,4.54,4.54,12.76,10,26.05,10a52.48,52.48,0,0,0,20.7-4.21,13.65,13.65,0,0,0,7.46,2.22h21.37a13.62,13.62,0,0,0,13.33-10.83l17.56-84a13.85,13.85,0,0,0,.45-3.49,13.59,13.59,0,0,0-13.59-13.61Zm0,27.22h0Z" transform="translate(-32.61 -472.44)"/><path class="bcdaedf8-d4a4-4415-b354-bd77693a36e6" d="M366,792.74l22.17-3.51q3,7,7.34,9.93t12,2.91q7.81,0,12.52-3.51a7,7,0,0,0,3.27-5.82,6,6,0,0,0-1.68-4.15q-1.75-1.76-9.49-4.31-20.73-6.85-25.68-10.84a19.88,19.88,0,0,1-7.74-16.27,23.26,23.26,0,0,1,7.5-17.31q10.45-10.14,31-10.13,16.35,0,24.72,6a26.06,26.06,0,0,1,10.61,16.19l-21.13,3.67a13.08,13.08,0,0,0-5.43-6.94,23.19,23.19,0,0,0-12.28-3.11q-7.18,0-10.33,2.39c-2.1,1.6-3.15,3.43-3.15,5.51a6.12,6.12,0,0,0,3.19,5.26q2,1.27,12.84,4.47Q433,768,438.66,772.72q8,6.62,8,15.95,0,12-10.13,20.9T408,818.42q-18.34,0-28.36-6.74A33.41,33.41,0,0,1,366,792.74Z" transform="translate(-32.61 -472.44)"/><path d="M417.21,729.73q16.35,0,24.72,6a26.06,26.06,0,0,1,10.61,16.19l-21.13,3.67a13.08,13.08,0,0,0-5.43-6.94,23.19,23.19,0,0,0-12.28-3.11q-7.18,0-10.33,2.39c-2.1,1.6-3.15,3.43-3.15,5.51a6.12,6.12,0,0,0,3.19,5.26q2,1.27,12.84,4.47Q433,768,438.66,772.72q8,6.62,8,15.95,0,12-10.13,20.9T408,818.42q-18.34,0-28.36-6.74A33.41,33.41,0,0,1,366,792.74l22.17-3.51q3,7,7.34,9.93t12,2.91q7.81,0,12.52-3.51a7,7,0,0,0,3.27-5.82,6,6,0,0,0-1.68-4.15q-1.75-1.76-9.49-4.31-20.73-6.85-25.68-10.84a19.88,19.88,0,0,1-7.74-16.27,23.26,23.26,0,0,1,7.5-17.31q10.45-10.14,31-10.13m0-13.61c-17.32,0-30.94,4.7-40.5,14a37,37,0,0,0-11.64,27.09A33.52,33.52,0,0,0,372,778l-8.08,1.27a13.62,13.62,0,0,0-10.93,17.29A46.79,46.79,0,0,0,372,823c9.05,6.1,20.81,9.06,36,9.06,15.61,0,28.23-4.11,37.51-12.21,9.67-8.46,14.78-19.23,14.78-31.15a32.89,32.89,0,0,0-9-22.73l3.61-.63a13.61,13.61,0,0,0,11-16.32,39.46,39.46,0,0,0-16-24.36c-8-5.73-18.7-8.51-32.64-8.51Z" transform="translate(-32.61 -472.44)"/><path class="bcdaedf8-d4a4-4415-b354-bd77693a36e6" d="M459.83,748.71l3.51-17H474.5l2.79-13.56,26.25-15.79-6.15,29.35h14l-3.51,17h-14l-7.41,35.49q-2,9.66-2,11a5.17,5.17,0,0,0,1.68,4.11q1.67,1.47,6.06,1.47,1.51,0,7.58-.55l-3.59,17A61.53,61.53,0,0,1,484,818.42q-12.12,0-17.62-4.66t-5.51-13q0-3.9,2.95-18l7.1-34.06Z" transform="translate(-32.61 -472.44)"/><path d="M503.54,702.37h0m0,0-6.15,29.35h14l-3.51,17h-14l-7.41,35.49q-2,9.66-2,11a5.17,5.17,0,0,0,1.68,4.11q1.67,1.47,6.06,1.47,1.51,0,7.58-.55l-3.59,17A61.53,61.53,0,0,1,484,818.42q-12.12,0-17.62-4.66t-5.51-13q0-3.9,2.95-18l7.1-34.06H459.83l3.51-17H474.5l2.79-13.56,26.25-15.79m7.81,29.35h0m-11.68,68.52h0m3.79-111.48h-.25a13.61,13.61,0,0,0-6.95,2.06L470.27,706.5a13.63,13.63,0,0,0-6.31,8.92l-.55,2.69h-.07A13.63,13.63,0,0,0,450,729l-3.5,17a13.59,13.59,0,0,0,7.91,15.24L450.49,780c-2.85,13.65-3.24,18.18-3.24,20.8,0,12.07,5.61,19.36,10.31,23.35,6.27,5.31,14.92,7.89,26.43,7.89a75,75,0,0,0,14.83-1.46A13.64,13.64,0,0,0,509.44,820l3.44-16.29a13.62,13.62,0,0,0-13.09-17.13l5.08-24.3h3a13.6,13.6,0,0,0,13.33-10.86l3.37-16.29a13.63,13.63,0,0,0-10.45-16.79l2.62-12.52a13.41,13.41,0,0,0,.45-3.49,13.59,13.59,0,0,0-13.59-13.61h0Zm0,27.22h0Z" transform="translate(-32.61 -472.44)"/><path class="bcdaedf8-d4a4-4415-b354-bd77693a36e6" d="M519.19,731.72h21.38l-3.43,16.43q12-18.42,25.92-18.42a26.56,26.56,0,0,1,10.61,2.47l-8.77,18.74a19.57,19.57,0,0,0-6.62-1.11q-5.91,0-12,4.46a30.08,30.08,0,0,0-9.53,11.93q-3.42,7.46-6.78,23.65l-5.58,26.56H501.49Z" transform="translate(-32.61 -472.44)"/><path d="M563.06,729.73a26.56,26.56,0,0,1,10.61,2.47l-8.77,18.74a19.57,19.57,0,0,0-6.62-1.11q-5.91,0-12,4.46a30.08,30.08,0,0,0-9.53,11.93q-3.42,7.46-6.78,23.65l-5.58,26.56H501.49l17.7-84.71h21.38l-3.43,16.43q12-18.42,25.92-18.42m0-13.61a34.9,34.9,0,0,0-15.79,3.75,13.62,13.62,0,0,0-6.7-1.76H519.19a13.61,13.61,0,0,0-13.32,10.83l-17.71,84.7A13.62,13.62,0,0,0,501.49,830h22.89a13.61,13.61,0,0,0,13.32-10.81l5.58-26.56c2.52-12.17,4.56-18,5.83-20.76a16.43,16.43,0,0,1,5.2-6.63,8.05,8.05,0,0,1,4-1.84,5.75,5.75,0,0,1,2,.32,13.62,13.62,0,0,0,16.93-7L586,738a13.6,13.6,0,0,0-6.88-18.24,40.13,40.13,0,0,0-16.06-3.61Z" transform="translate(-32.61 -472.44)"/><path class="bcdaedf8-d4a4-4415-b354-bd77693a36e6" d="M578.32,731.72h22.9l-17.71,84.71H560.62ZM585,699.5h22.89l-4.3,20.74H580.72Z" transform="translate(-32.61 -472.44)"/><path d="M607.91,699.5l-4.3,20.74H580.72L585,699.5h22.89m-6.69,32.22-17.71,84.71H560.62l17.7-84.71h22.9m6.69-45.83H585a13.6,13.6,0,0,0-13.32,10.84l-4.31,20.74a13.64,13.64,0,0,0,.1,6,13.67,13.67,0,0,0-2.49,5.47l-17.71,84.7A13.62,13.62,0,0,0,560.62,830h22.89a13.61,13.61,0,0,0,13.32-10.83l17.71-84.7a13.73,13.73,0,0,0-.1-6,13.71,13.71,0,0,0,2.5-5.49l4.3-20.73a13.61,13.61,0,0,0-13.33-16.38Zm0,27.22h0Zm-6.69,32.22h0Z" transform="translate(-32.61 -472.44)"/><path class="bcdaedf8-d4a4-4415-b354-bd77693a36e6" d="M632.59,755.73l-22.34-1.91a33.66,33.66,0,0,1,13.36-17.71q9.54-6.39,25.25-6.38,16.35,0,24.17,6.58t7.81,16.07a51.63,51.63,0,0,1-.68,8.14q-.67,4.31-4.74,22.65-3.34,15.15-3.35,21.21a44,44,0,0,0,1.91,12H651.73a44.81,44.81,0,0,1-1.68-9.57,34.93,34.93,0,0,1-11.56,8.57,31.46,31.46,0,0,1-13.16,3q-10.53,0-17.39-6.9t-6.86-17.74q0-12.13,7.54-19.39t26.92-8.77q16.35-1.35,21.85-3.27a28.17,28.17,0,0,0,1.44-7.66,7.73,7.73,0,0,0-3-6.14c-2-1.65-4.89-2.47-8.78-2.47q-6.14,0-9.69,2.51A12.53,12.53,0,0,0,632.59,755.73ZM654.36,777a47.54,47.54,0,0,1-5.5,1q-17.24,2.09-22.49,6.06a9.26,9.26,0,0,0-3.75,7.74,8.94,8.94,0,0,0,2.87,6.74,10.46,10.46,0,0,0,7.58,2.75,20,20,0,0,0,9.77-2.51,17.24,17.24,0,0,0,6.86-6.46q2.26-3.94,4-12.32Z" transform="translate(-32.61 -472.44)"/><path d="M648.86,729.73q16.35,0,24.17,6.58t7.81,16.07a51.63,51.63,0,0,1-.68,8.14q-.67,4.31-4.74,22.65-3.34,15.15-3.35,21.21a44,44,0,0,0,1.91,12H651.73a44.81,44.81,0,0,1-1.68-9.57,34.93,34.93,0,0,1-11.56,8.57,31.46,31.46,0,0,1-13.16,3q-10.53,0-17.39-6.9t-6.86-17.74q0-12.13,7.54-19.39t26.92-8.77q16.35-1.35,21.85-3.27a28.17,28.17,0,0,0,1.44-7.66,7.73,7.73,0,0,0-3-6.14c-2-1.65-4.89-2.47-8.78-2.47q-6.14,0-9.69,2.51a12.53,12.53,0,0,0-4.82,7.14l-22.34-1.91a33.66,33.66,0,0,1,13.36-17.71q9.54-6.39,25.25-6.38m5.5,47.22a47.54,47.54,0,0,1-5.5,1q-17.24,2.09-22.49,6.06a9.26,9.26,0,0,0-3.75,7.74,8.94,8.94,0,0,0,2.87,6.74,10.46,10.46,0,0,0,7.58,2.75,20,20,0,0,0,9.77-2.51,17.24,17.24,0,0,0,6.86-6.46q2.26-3.94,4-12.32l.64-3m-5.5-60.83c-13.17,0-24.21,2.92-32.82,8.68a47,47,0,0,0-18.68,24.66,13.65,13.65,0,0,0,3.18,13.89c-.47.4-.92.82-1.36,1.24-7.66,7.37-11.71,17.47-11.71,29.19,0,10.77,3.74,20.22,10.82,27.34a37.23,37.23,0,0,0,27,10.91,45.08,45.08,0,0,0,18.82-4.22l.07,0a13.57,13.57,0,0,0,7.51,2.26H674a13.61,13.61,0,0,0,13.08-17.39,30.44,30.44,0,0,1-1.38-8.27c0-1.37.3-5.91,3-18.27,3.73-16.81,4.58-21.45,4.9-23.48a66.13,66.13,0,0,0,.84-10.25c0-10.35-4.37-19.51-12.66-26.49-7.81-6.58-18.59-9.77-32.93-9.77Z" transform="translate(-32.61 -472.44)"/><path class="bcdaedf8-d4a4-4415-b354-bd77693a36e6" d="M682.46,792.74l22.18-3.51q3,7,7.34,9.93t12,2.91q7.81,0,12.52-3.51a7,7,0,0,0,3.27-5.82,6,6,0,0,0-1.67-4.15q-1.75-1.76-9.49-4.31-20.75-6.85-25.69-10.84a19.9,19.9,0,0,1-7.73-16.27,23.29,23.29,0,0,1,7.49-17.31q10.46-10.14,31-10.13,16.35,0,24.73,6A26.05,26.05,0,0,1,769,751.9l-21.13,3.67a13.08,13.08,0,0,0-5.43-6.94,23.17,23.17,0,0,0-12.28-3.11q-7.17,0-10.33,2.39c-2.1,1.6-3.15,3.43-3.15,5.51a6.14,6.14,0,0,0,3.19,5.26q2,1.27,12.84,4.47,16.75,4.86,22.42,9.57,8,6.62,8,15.95,0,12-10.13,20.9t-28.55,8.85q-18.34,0-28.36-6.74A33.45,33.45,0,0,1,682.46,792.74Z" transform="translate(-32.61 -472.44)"/><path d="M733.67,729.73q16.35,0,24.73,6A26.05,26.05,0,0,1,769,751.9l-21.13,3.67a13.08,13.08,0,0,0-5.43-6.94,23.17,23.17,0,0,0-12.28-3.11q-7.17,0-10.33,2.39c-2.1,1.6-3.15,3.43-3.15,5.51a6.14,6.14,0,0,0,3.19,5.26q2,1.27,12.84,4.47,16.75,4.86,22.42,9.57,8,6.62,8,15.95,0,12-10.13,20.9t-28.55,8.85q-18.34,0-28.36-6.74a33.45,33.45,0,0,1-13.6-18.94l22.18-3.51q3,7,7.34,9.93t12,2.91q7.81,0,12.52-3.51a7,7,0,0,0,3.27-5.82,6,6,0,0,0-1.67-4.15q-1.75-1.76-9.49-4.31-20.75-6.85-25.69-10.84a19.9,19.9,0,0,1-7.73-16.27,23.29,23.29,0,0,1,7.49-17.31q10.46-10.14,31-10.13m0-13.61c-17.31,0-30.94,4.7-40.5,14a37,37,0,0,0-11.64,27.09A33.52,33.52,0,0,0,688.41,778l-8.07,1.27a13.61,13.61,0,0,0-10.93,17.29A46.82,46.82,0,0,0,688.46,823c9.06,6.1,20.82,9.06,36,9.06,15.62,0,28.24-4.11,37.51-12.21,9.67-8.46,14.78-19.23,14.78-31.15a32.89,32.89,0,0,0-9-22.73l3.61-.63a13.61,13.61,0,0,0,11-16.32,39.38,39.38,0,0,0-16-24.36c-8-5.73-18.7-8.51-32.64-8.51Z" transform="translate(-32.61 -472.44)"/><path class="bcdaedf8-d4a4-4415-b354-bd77693a36e6" d="M814,778.54l22.89-1.19q.48,10.92,3.75,14.75,5.27,6.23,19.46,6.22,11.8,0,17.07-4.23c3.51-2.81,5.26-6.22,5.26-10.2a11,11,0,0,0-4.31-8.78q-3-2.62-16.63-8.53t-19.86-9.85a29,29,0,0,1-9.85-10.25,29.34,29.34,0,0,1-3.59-14.76,31.7,31.7,0,0,1,10.69-24.48q10.7-9.74,31-9.74,20.58,0,31.86,9.66t12.41,25.68l-23.06,1q-.87-8.39-6.06-12.85t-15.31-4.46q-10,0-14.24,3.51a11,11,0,0,0-4.27,8.85,10.38,10.38,0,0,0,3.91,8.3q3.92,3.35,17.31,9.17,20.18,8.69,25.68,14.12,8.22,8,8.22,20.49,0,15.48-12.24,26.44t-34.1,11q-15.08,0-26.12-5.06t-15.6-14.08A42.71,42.71,0,0,1,814,778.54Z" transform="translate(-32.61 -472.44)"/><path d="M869.87,697.5q20.58,0,31.86,9.66t12.41,25.68l-23.06,1q-.87-8.39-6.06-12.85t-15.31-4.46q-10,0-14.24,3.51a11,11,0,0,0-4.27,8.85,10.38,10.38,0,0,0,3.91,8.3q3.92,3.35,17.31,9.17,20.18,8.69,25.68,14.12,8.22,8,8.22,20.49,0,15.48-12.24,26.44t-34.1,11q-15.08,0-26.12-5.06t-15.6-14.08A42.71,42.71,0,0,1,814,778.54l22.89-1.19q.48,10.92,3.75,14.75,5.27,6.23,19.46,6.22,11.8,0,17.07-4.23c3.51-2.81,5.26-6.22,5.26-10.2a11,11,0,0,0-4.31-8.78q-3-2.62-16.63-8.53t-19.86-9.85a29,29,0,0,1-9.85-10.25,29.34,29.34,0,0,1-3.59-14.76,31.7,31.7,0,0,1,10.69-24.48q10.7-9.74,31-9.74m0-13.61c-16.94,0-30.44,4.47-40.11,13.28a45.52,45.52,0,0,0-15.14,34.55,42.93,42.93,0,0,0,5.37,21.5,42.17,42.17,0,0,0,8.91,10.91l-15.57.82a13.61,13.61,0,0,0-12.9,13.22,56.38,56.38,0,0,0,5.68,27.24c4.44,8.8,11.87,15.64,22.07,20.32,9.13,4.18,19.82,6.3,31.8,6.3,17.95,0,32.48-4.85,43.18-14.44,11-9.83,16.77-22.47,16.77-36.58,0-12-4.27-22.42-12.34-30.26A35.43,35.43,0,0,0,903,747l11.74-.53a13.6,13.6,0,0,0,13-14.55c-1-14.41-6.76-26.22-17.13-35.08-10-8.57-23.72-12.92-40.71-12.92Zm7.41,49.78c-3.2-1.4-5.66-2.55-7.54-3.49,4,0,5.93.76,6.4,1.17a4.42,4.42,0,0,1,1.14,2.32Zm-25.91,49.76a30.16,30.16,0,0,1-.84-6.68,1,1,0,0,1,0-.17q2.64,1.2,5.59,2.48c5.51,2.39,8.83,4,10.78,5a29.85,29.85,0,0,1-6.75.62c-5.41,0-7.89-.86-8.77-1.28Z" transform="translate(-32.61 -472.44)"/><path class="bcdaedf8-d4a4-4415-b354-bd77693a36e6" d="M945.75,755.73l-22.34-1.91a33.66,33.66,0,0,1,13.36-17.71q9.54-6.39,25.25-6.38,16.35,0,24.17,6.58T994,752.38a51.63,51.63,0,0,1-.68,8.14q-.68,4.31-4.74,22.65-3.36,15.15-3.35,21.21a44,44,0,0,0,1.91,12H964.89a44.81,44.81,0,0,1-1.68-9.57,35,35,0,0,1-11.56,8.57,31.46,31.46,0,0,1-13.16,3q-10.53,0-17.39-6.9t-6.86-17.74q0-12.13,7.54-19.39t26.92-8.77q16.35-1.35,21.85-3.27a28.17,28.17,0,0,0,1.44-7.66,7.73,7.73,0,0,0-3-6.14q-3-2.47-8.78-2.47-6.13,0-9.69,2.51A12.53,12.53,0,0,0,945.75,755.73ZM967.52,777a48,48,0,0,1-5.5,1q-17.24,2.09-22.49,6.06a9.26,9.26,0,0,0-3.75,7.74,8.94,8.94,0,0,0,2.87,6.74,10.46,10.46,0,0,0,7.58,2.75,20,20,0,0,0,9.77-2.51,17.24,17.24,0,0,0,6.86-6.46q2.26-3.94,4-12.32Z" transform="translate(-32.61 -472.44)"/><path d="M962,729.73q16.35,0,24.17,6.58T994,752.38a51.63,51.63,0,0,1-.68,8.14q-.68,4.31-4.74,22.65-3.36,15.15-3.35,21.21a44,44,0,0,0,1.91,12H964.89a44.81,44.81,0,0,1-1.68-9.57,35,35,0,0,1-11.56,8.57,31.46,31.46,0,0,1-13.16,3q-10.53,0-17.39-6.9t-6.86-17.74q0-12.13,7.54-19.39t26.92-8.77q16.35-1.35,21.85-3.27a28.17,28.17,0,0,0,1.44-7.66,7.73,7.73,0,0,0-3-6.14q-3-2.47-8.78-2.47-6.13,0-9.69,2.51a12.53,12.53,0,0,0-4.82,7.14l-22.34-1.91a33.66,33.66,0,0,1,13.36-17.71q9.54-6.39,25.25-6.38m5.5,47.22a48,48,0,0,1-5.5,1q-17.24,2.09-22.49,6.06a9.26,9.26,0,0,0-3.75,7.74,8.94,8.94,0,0,0,2.87,6.74,10.46,10.46,0,0,0,7.58,2.75,20,20,0,0,0,9.77-2.51,17.24,17.24,0,0,0,6.86-6.46q2.26-3.94,4-12.32l.64-3M962,716.12c-13.17,0-24.21,2.92-32.82,8.68a47,47,0,0,0-18.68,24.66,13.65,13.65,0,0,0,3.18,13.89c-.47.4-.92.82-1.36,1.24-7.66,7.37-11.71,17.47-11.71,29.19,0,10.77,3.74,20.22,10.82,27.34a37.23,37.23,0,0,0,27,10.91,45.08,45.08,0,0,0,18.82-4.22l.07,0a13.57,13.57,0,0,0,7.51,2.26h22.25a13.61,13.61,0,0,0,13.08-17.39,30.44,30.44,0,0,1-1.38-8.27c0-1.37.3-5.91,3-18.27,3.73-16.81,4.58-21.45,4.9-23.48a66.13,66.13,0,0,0,.84-10.25c0-10.35-4.37-19.51-12.66-26.49-7.81-6.58-18.59-9.77-32.93-9.77Z" transform="translate(-32.61 -472.44)"/><path class="bcdaedf8-d4a4-4415-b354-bd77693a36e6" d="M998.42,816.43,1022.9,699.5h22.81l-24.4,116.93Z" transform="translate(-32.61 -472.44)"/><path d="M1045.71,699.5l-24.4,116.93H998.42L1022.9,699.5h22.81m0-13.61H1022.9a13.6,13.6,0,0,0-13.32,10.82L985.09,813.64A13.62,13.62,0,0,0,998.42,830h22.89a13.61,13.61,0,0,0,13.32-10.83L1059,702.28a13.6,13.6,0,0,0-13.33-16.39Zm0,27.22h0Z" transform="translate(-32.61 -472.44)"/><path class="bcdaedf8-d4a4-4415-b354-bd77693a36e6" d="M1056,731.72h22.89l-17.71,84.71h-22.89Zm6.7-32.22h22.89l-4.31,20.74h-22.89Z" transform="translate(-32.61 -472.44)"/><path d="M1085.54,699.5l-4.31,20.74h-22.89l4.31-20.74h22.89m-6.7,32.22-17.71,84.71h-22.89L1056,731.72h22.89m6.7-45.83h-22.89a13.61,13.61,0,0,0-13.33,10.84L1045,717.47a13.64,13.64,0,0,0,.11,6,13.69,13.69,0,0,0-2.5,5.47l-17.7,84.7a13.62,13.62,0,0,0,13.32,16.4h22.89a13.62,13.62,0,0,0,13.33-10.83l17.71-84.7a13.58,13.58,0,0,0-.11-6,13.44,13.44,0,0,0,2.5-5.49l4.31-20.73a13.61,13.61,0,0,0-13.33-16.38Zm0,27.22h0Zm-6.7,32.22h0Z" transform="translate(-32.61 -472.44)"/><path class="bcdaedf8-d4a4-4415-b354-bd77693a36e6" d="M1095.94,731.72h21.69l-2.23,11a59.54,59.54,0,0,1,15.19-10,37.85,37.85,0,0,1,14.88-3q10.44,0,16.47,6t6,15.87q0,4.47-2.63,16.91l-10,47.94h-22.89l10-48.1q2.22-10.77,2.23-12.84a9.17,9.17,0,0,0-2.59-6.9,10,10,0,0,0-7.22-2.51q-5,0-11.17,4.23a29.4,29.4,0,0,0-9.65,11.16q-2.55,4.95-5.74,20.18l-7.26,34.78h-22.89Z" transform="translate(-32.61 -472.44)"/><path d="M1145.47,729.73q10.44,0,16.47,6t6,15.87q0,4.47-2.63,16.91l-10,47.94h-22.89l10-48.1q2.22-10.77,2.23-12.84a9.17,9.17,0,0,0-2.59-6.9,10,10,0,0,0-7.22-2.51q-5,0-11.17,4.23a29.4,29.4,0,0,0-9.65,11.16q-2.55,4.95-5.74,20.18l-7.26,34.78h-22.89l17.71-84.71h21.69l-2.23,11a59.54,59.54,0,0,1,15.19-10,37.85,37.85,0,0,1,14.88-3m0-13.61a51.29,51.29,0,0,0-20.19,4.07l-.25.1a13.63,13.63,0,0,0-7.4-2.18h-21.69a13.62,13.62,0,0,0-13.33,10.83l-17.71,84.7a13.62,13.62,0,0,0,13.33,16.4h22.89a13.62,13.62,0,0,0,13.33-10.83l7.25-34.78c2.68-12.76,4.23-16.16,4.52-16.71a16.78,16.78,0,0,1,3.51-4.79c-.17.8-.34,1.68-.54,2.64l-10,48.07a13.62,13.62,0,0,0,13.33,16.4h22.89a13.61,13.61,0,0,0,13.32-10.84l10-47.94c2.59-12.21,2.92-16.94,2.92-19.68,0-10.17-3.47-19-10-25.53-4.56-4.53-12.79-9.93-26.06-9.93Z" transform="translate(-32.61 -472.44)"/><path class="bcdaedf8-d4a4-4415-b354-bd77693a36e6" d="M1254.44,781.17H1197c0,.91-.08,1.6-.08,2.08q0,8.44,4.83,13.64a15.47,15.47,0,0,0,11.76,5.18q11.42,0,17.79-11.8l20.5,3.43q-6,12.36-16,18.54a41.91,41.91,0,0,1-22.46,6.18q-17.07,0-27.75-10.81T1174.92,779a52.08,52.08,0,0,1,9.65-30.95q13.15-18.35,37.57-18.34,15.55,0,24.72,9.61t9.17,26.92A64,64,0,0,1,1254.44,781.17Zm-19.3-13.95c0-1,.08-1.79.08-2.32q0-9.4-4.23-14.12a14.49,14.49,0,0,0-11.33-4.7,18,18,0,0,0-12.72,5.34q-5.62,5.36-7.61,15.8Z" transform="translate(-32.61 -472.44)"/><path d="M1222.14,729.73q15.55,0,24.72,9.61t9.17,26.92a64,64,0,0,1-1.59,14.91H1197c0,.91-.08,1.6-.08,2.08q0,8.44,4.83,13.64a15.47,15.47,0,0,0,11.76,5.18q11.42,0,17.79-11.8l20.5,3.43q-6,12.36-16,18.54a41.91,41.91,0,0,1-22.46,6.18q-17.07,0-27.75-10.81T1174.92,779a52.08,52.08,0,0,1,9.65-30.95q13.15-18.35,37.57-18.34m-22.81,37.49h35.81c0-1,.08-1.79.08-2.32q0-9.4-4.23-14.12a14.49,14.49,0,0,0-11.33-4.7,18,18,0,0,0-12.72,5.34q-5.62,5.36-7.61,15.8m22.81-51.1c-20.54,0-37.36,8.3-48.63,24a65.64,65.64,0,0,0-12.2,38.88c0,15.51,4.92,28.36,14.62,38.17S1198.27,832,1213.36,832a55.49,55.49,0,0,0,29.61-8.21c8.88-5.48,16-13.62,21.09-24.2a13.56,13.56,0,0,0,.82-9.71,13.43,13.43,0,0,0,2.79-5.55,77.56,77.56,0,0,0,2-18.1c0-15.11-4.36-27.32-12.94-36.32-8.76-9.17-20.39-13.82-34.57-13.82Z" transform="translate(-32.61 -472.44)"/><path class="bcdaedf8-d4a4-4415-b354-bd77693a36e6" d="M1273.53,731.72h21.37l-3.42,16.43q12-18.42,25.92-18.42A26.64,26.64,0,0,1,1328,732.2l-8.78,18.74a19.53,19.53,0,0,0-6.62-1.11q-5.89,0-12,4.46a29.91,29.91,0,0,0-9.53,11.93q-3.43,7.46-6.78,23.65l-5.59,26.56h-22.89Z" transform="translate(-32.61 -472.44)"/><path d="M1317.4,729.73A26.64,26.64,0,0,1,1328,732.2l-8.78,18.74a19.53,19.53,0,0,0-6.62-1.11q-5.89,0-12,4.46a29.91,29.91,0,0,0-9.53,11.93q-3.43,7.46-6.78,23.65l-5.59,26.56h-22.89l17.71-84.71h21.37l-3.42,16.43q12-18.42,25.92-18.42m0-13.61a35,35,0,0,0-15.8,3.75,13.62,13.62,0,0,0-6.7-1.76h-21.37a13.62,13.62,0,0,0-13.33,10.83l-17.7,84.7a13.62,13.62,0,0,0,13.32,16.4h22.89A13.61,13.61,0,0,0,1292,819.23l5.59-26.56c2.52-12.17,4.55-18,5.82-20.76a16.45,16.45,0,0,1,5.21-6.63,8,8,0,0,1,4-1.84,5.71,5.71,0,0,1,2,.32,13.62,13.62,0,0,0,16.93-7l8.77-18.75a13.6,13.6,0,0,0-6.88-18.24,40.09,40.09,0,0,0-16-3.61Z" transform="translate(-32.61 -472.44)"/><path class="bcdaedf8-d4a4-4415-b354-bd77693a36e6" d="M1347.25,755.73l-22.33-1.91a33.61,33.61,0,0,1,13.36-17.71q9.54-6.39,25.25-6.38,16.35,0,24.16,6.58t7.82,16.07a52.85,52.85,0,0,1-.68,8.14q-.67,4.31-4.74,22.65-3.36,15.15-3.35,21.21a43.62,43.62,0,0,0,1.91,12H1366.4a43.6,43.6,0,0,1-1.68-9.57,35,35,0,0,1-11.56,8.57,31.46,31.46,0,0,1-13.16,3q-10.53,0-17.39-6.9t-6.86-17.74q0-12.13,7.54-19.39t26.92-8.77q16.35-1.35,21.85-3.27a28.17,28.17,0,0,0,1.44-7.66,7.71,7.71,0,0,0-3-6.14c-2-1.65-4.89-2.47-8.77-2.47q-6.13,0-9.69,2.51A12.54,12.54,0,0,0,1347.25,755.73ZM1369,777a48,48,0,0,1-5.5,1q-17.23,2.09-22.5,6.06a9.26,9.26,0,0,0-3.75,7.74,9,9,0,0,0,2.88,6.74,10.46,10.46,0,0,0,7.57,2.75,19.94,19.94,0,0,0,9.77-2.51,17.11,17.11,0,0,0,6.86-6.46q2.28-3.94,4-12.32Z" transform="translate(-32.61 -472.44)"/><path d="M1363.53,729.73q16.35,0,24.16,6.58t7.82,16.07a52.85,52.85,0,0,1-.68,8.14q-.67,4.31-4.74,22.65-3.36,15.15-3.35,21.21a43.62,43.62,0,0,0,1.91,12H1366.4a43.6,43.6,0,0,1-1.68-9.57,35,35,0,0,1-11.56,8.57,31.46,31.46,0,0,1-13.16,3q-10.53,0-17.39-6.9t-6.86-17.74q0-12.13,7.54-19.39t26.92-8.77q16.35-1.35,21.85-3.27a28.17,28.17,0,0,0,1.44-7.66,7.71,7.71,0,0,0-3-6.14c-2-1.65-4.89-2.47-8.77-2.47q-6.13,0-9.69,2.51a12.54,12.54,0,0,0-4.83,7.14l-22.33-1.91a33.61,33.61,0,0,1,13.36-17.71q9.54-6.39,25.25-6.38M1369,777a48,48,0,0,1-5.5,1q-17.23,2.09-22.5,6.06a9.26,9.26,0,0,0-3.75,7.74,9,9,0,0,0,2.88,6.74,10.46,10.46,0,0,0,7.57,2.75,19.94,19.94,0,0,0,9.77-2.51,17.11,17.11,0,0,0,6.86-6.46q2.28-3.94,4-12.32l.64-3m-5.5-60.83c-13.17,0-24.22,2.92-32.82,8.68A47,47,0,0,0,1312,749.46a13.6,13.6,0,0,0,1.5,11.81,14.15,14.15,0,0,0,1.68,2.08c-.47.4-.93.82-1.37,1.24-7.66,7.37-11.7,17.47-11.7,29.19,0,10.77,3.74,20.22,10.82,27.34A37.2,37.2,0,0,0,1340,832a45.08,45.08,0,0,0,18.82-4.22l.06,0a13.61,13.61,0,0,0,7.52,2.26h22.25a13.61,13.61,0,0,0,13.08-17.39,30.44,30.44,0,0,1-1.38-8.27c0-1.37.29-5.91,3-18.27,3.72-16.81,4.58-21.45,4.9-23.48a66.13,66.13,0,0,0,.84-10.25c0-10.35-4.38-19.51-12.66-26.49-7.82-6.58-18.59-9.77-32.93-9.77Z" transform="translate(-32.61 -472.44)"/><path class="bcdaedf8-d4a4-4415-b354-bd77693a36e6" d="M1397.13,792.74l22.17-3.51q3,7,7.34,9.93t12,2.91q7.82,0,12.52-3.51a7,7,0,0,0,3.27-5.82,6,6,0,0,0-1.68-4.15q-1.76-1.76-9.49-4.31-20.73-6.85-25.68-10.84a19.88,19.88,0,0,1-7.74-16.27,23.26,23.26,0,0,1,7.5-17.31q10.45-10.14,31-10.13,16.35,0,24.72,6a26.06,26.06,0,0,1,10.61,16.19l-21.14,3.67a13,13,0,0,0-5.42-6.94,23.19,23.19,0,0,0-12.28-3.11q-7.18,0-10.33,2.39c-2.1,1.6-3.15,3.43-3.15,5.51a6.12,6.12,0,0,0,3.19,5.26q2,1.27,12.84,4.47,16.75,4.86,22.41,9.57,8,6.62,8,15.95,0,12-10.13,20.9t-28.55,8.85q-18.35,0-28.36-6.74A33.41,33.41,0,0,1,1397.13,792.74Z" transform="translate(-32.61 -472.44)"/><path d="M1448.34,729.73q16.35,0,24.72,6a26.06,26.06,0,0,1,10.61,16.19l-21.14,3.67a13,13,0,0,0-5.42-6.94,23.19,23.19,0,0,0-12.28-3.11q-7.18,0-10.33,2.39c-2.1,1.6-3.15,3.43-3.15,5.51a6.12,6.12,0,0,0,3.19,5.26q2,1.27,12.84,4.47,16.75,4.86,22.41,9.57,8,6.62,8,15.95,0,12-10.13,20.9t-28.55,8.85q-18.35,0-28.36-6.74a33.41,33.41,0,0,1-13.6-18.94l22.17-3.51q3,7,7.34,9.93t12,2.91q7.82,0,12.52-3.51a7,7,0,0,0,3.27-5.82,6,6,0,0,0-1.68-4.15q-1.76-1.76-9.49-4.31-20.73-6.85-25.68-10.84a19.88,19.88,0,0,1-7.74-16.27,23.26,23.26,0,0,1,7.5-17.31q10.45-10.14,31-10.13m0-13.61c-17.32,0-30.94,4.7-40.5,14a37,37,0,0,0-11.64,27.09,33.52,33.52,0,0,0,6.88,20.85l-8.08,1.27a13.62,13.62,0,0,0-10.93,17.29A46.79,46.79,0,0,0,1403.13,823c9,6.1,20.81,9.06,36,9.06,15.61,0,28.23-4.11,37.51-12.21,9.67-8.46,14.78-19.23,14.78-31.15a32.89,32.89,0,0,0-9-22.73l3.61-.63A13.61,13.61,0,0,0,1497,749a39.46,39.46,0,0,0-16-24.36c-8-5.73-18.7-8.51-32.64-8.51Z" transform="translate(-32.61 -472.44)"/><path class="bcdaedf8-d4a4-4415-b354-bd77693a36e6" d="M1490.32,794.33h23l-3.83,18.27q-3.27,15.79-10.49,22.37t-18.7,6.82l2.23-10.61a17,17,0,0,0,8.89-4.58q3.15-3.32,4.67-10.17h-10.53Z" transform="translate(-32.61 -472.44)"/><path d="M1513.37,794.33l-3.83,18.27q-3.27,15.79-10.49,22.37t-18.7,6.82l2.23-10.61a17,17,0,0,0,8.89-4.58q3.15-3.32,4.67-10.17h-10.53l4.71-22.1h23m0-13.61h-23A13.61,13.61,0,0,0,1477,791.5l-4.7,22.09a13.56,13.56,0,0,0,.69,7.93,13.61,13.61,0,0,0-3.73,6.86L1467,839a13.6,13.6,0,0,0,13.32,16.41h.28c11-.23,20.3-3.72,27.59-10.37,7.06-6.43,11.85-16.13,14.65-29.67l3.82-18.23a13.6,13.6,0,0,0-13.32-16.41Zm0,27.23h0Z" transform="translate(-32.61 -472.44)"/><path class="bcdaedf8-d4a4-4415-b354-bd77693a36e6" d="M1622,784.52l22.25,3.59q-5.51,14.83-16.27,22.57a41.66,41.66,0,0,1-25,7.74q-16.2,0-25.69-9.65t-9.49-26.56a61,61,0,0,1,5.74-26.08,44,44,0,0,1,17.31-19.34,47.75,47.75,0,0,1,25.37-7.06q15,0,23.92,7.81t10,20.58l-21.77,2.32q-.79-7.11-4.35-10.45a12.94,12.94,0,0,0-9.29-3.35,18.65,18.65,0,0,0-12.36,4.94q-5.75,4.95-8.82,14.8a62.39,62.39,0,0,0-3.07,18.46q0,7.5,3.67,11.57a11.87,11.87,0,0,0,9.18,4.07,17,17,0,0,0,10.6-4Q1619.11,792.5,1622,784.52Z" transform="translate(-32.61 -472.44)"/><path d="M1616.23,729.73q15,0,23.92,7.81t10,20.58l-21.77,2.32q-.79-7.11-4.35-10.45a12.94,12.94,0,0,0-9.29-3.35,18.65,18.65,0,0,0-12.36,4.94q-5.75,4.95-8.82,14.8a62.39,62.39,0,0,0-3.07,18.46q0,7.5,3.67,11.57a11.87,11.87,0,0,0,9.18,4.07,17,17,0,0,0,10.6-4q5.12-4,8-12l22.25,3.59q-5.51,14.83-16.27,22.57a41.66,41.66,0,0,1-25,7.74q-16.2,0-25.69-9.65t-9.49-26.56a61,61,0,0,1,5.74-26.08,44,44,0,0,1,17.31-19.34,47.75,47.75,0,0,1,25.37-7.06m0-13.61a61.37,61.37,0,0,0-32.46,9,57.66,57.66,0,0,0-22.55,25.19,74.66,74.66,0,0,0-7,31.85c0,14.92,4.51,27.07,13.4,36.11S1588.46,832,1603,832a55.16,55.16,0,0,0,32.9-10.29c9.39-6.74,16.48-16.46,21.09-28.89a13.62,13.62,0,0,0-10.59-18.18l-9.18-1.48,14.43-1.53a13.62,13.62,0,0,0,12.13-14.72c-1.06-12.09-6-22.06-14.65-29.64-8.48-7.42-19.55-11.18-32.89-11.18Zm-12,70.5a14.38,14.38,0,0,1-.1-1.78,48.91,48.91,0,0,1,2.45-14.41c1.25-4,2.88-7,4.7-8.53s2.76-1.63,3.3-1.65a12.55,12.55,0,0,1,.29,1.71,13.59,13.59,0,0,0,5,9.1,13.63,13.63,0,0,0-10.76,8.85c-1,2.8-2.23,4.82-3.55,5.85a7.51,7.51,0,0,1-1.35.86Z" transform="translate(-32.61 -472.44)"/><path class="bcdaedf8-d4a4-4415-b354-bd77693a36e6" d="M1654.94,794.33h22.65l-4.63,22.1h-22.65Z" transform="translate(-32.61 -472.44)"/><path d="M1677.59,794.33l-4.63,22.1h-22.65l4.63-22.1h22.65m0-13.61h-22.65a13.62,13.62,0,0,0-13.33,10.82l-4.62,22.1a13.62,13.62,0,0,0,13.32,16.4H1673a13.62,13.62,0,0,0,13.33-10.82l4.62-22.1a13.62,13.62,0,0,0-13.32-16.4Zm0,27.23h0Z" transform="translate(-32.61 -472.44)"/><path class="bcdaedf8-d4a4-4415-b354-bd77693a36e6" d="M1721.64,755.73l-22.33-1.91a33.61,33.61,0,0,1,13.36-17.71q9.52-6.39,25.24-6.38,16.35,0,24.17,6.58t7.82,16.07a52.85,52.85,0,0,1-.68,8.14q-.67,4.31-4.75,22.65-3.35,15.15-3.35,21.21a43.66,43.66,0,0,0,1.92,12h-22.25a43.6,43.6,0,0,1-1.68-9.57,35,35,0,0,1-11.56,8.57,31.46,31.46,0,0,1-13.16,3q-10.53,0-17.39-6.9t-6.86-17.74q0-12.13,7.54-19.39t26.91-8.77q16.35-1.35,21.86-3.27a28.08,28.08,0,0,0,1.43-7.66,7.7,7.7,0,0,0-3-6.14c-2-1.65-4.89-2.47-8.77-2.47-4.09,0-7.33.84-9.69,2.51A12.5,12.5,0,0,0,1721.64,755.73ZM1743.42,777a47.77,47.77,0,0,1-5.51,1q-17.22,2.09-22.49,6.06a9.26,9.26,0,0,0-3.75,7.74,9,9,0,0,0,2.87,6.74,10.48,10.48,0,0,0,7.58,2.75,20,20,0,0,0,9.77-2.51,17.11,17.11,0,0,0,6.86-6.46q2.28-3.94,4-12.32Z" transform="translate(-32.61 -472.44)"/><path d="M1737.91,729.73q16.35,0,24.17,6.58t7.82,16.07a52.85,52.85,0,0,1-.68,8.14q-.67,4.31-4.75,22.65-3.35,15.15-3.35,21.21a43.66,43.66,0,0,0,1.92,12h-22.25a43.6,43.6,0,0,1-1.68-9.57,35,35,0,0,1-11.56,8.57,31.46,31.46,0,0,1-13.16,3q-10.53,0-17.39-6.9t-6.86-17.74q0-12.13,7.54-19.39t26.91-8.77q16.35-1.35,21.86-3.27a28.08,28.08,0,0,0,1.43-7.66,7.7,7.7,0,0,0-3-6.14c-2-1.65-4.89-2.47-8.77-2.47-4.09,0-7.33.84-9.69,2.51a12.5,12.5,0,0,0-4.83,7.14l-22.33-1.91a33.61,33.61,0,0,1,13.36-17.71q9.52-6.39,25.24-6.38m5.51,47.22a47.77,47.77,0,0,1-5.51,1q-17.22,2.09-22.49,6.06a9.26,9.26,0,0,0-3.75,7.74,9,9,0,0,0,2.87,6.74,10.48,10.48,0,0,0,7.58,2.75,20,20,0,0,0,9.77-2.51,17.11,17.11,0,0,0,6.86-6.46q2.28-3.94,4-12.32l.64-3m-5.51-60.83c-13.17,0-24.21,2.92-32.81,8.68a47.05,47.05,0,0,0-18.69,24.66,13.58,13.58,0,0,0,3.19,13.89c-.47.4-.93.82-1.37,1.24-7.66,7.37-11.7,17.47-11.7,29.19,0,10.77,3.74,20.22,10.81,27.34A37.24,37.24,0,0,0,1714.39,832a45.08,45.08,0,0,0,18.82-4.22l.06,0a13.61,13.61,0,0,0,7.52,2.26H1763a13.61,13.61,0,0,0,13.08-17.39,30.44,30.44,0,0,1-1.38-8.27c0-1.37.29-5.91,3-18.27,3.72-16.81,4.58-21.45,4.9-23.48a66.13,66.13,0,0,0,.84-10.25c0-10.35-4.38-19.51-12.66-26.49-7.82-6.58-18.59-9.77-32.94-9.77Z" transform="translate(-32.61 -472.44)"/><path class="bcdaedf8-d4a4-4415-b354-bd77693a36e6" d="M1779.74,794.33h22.65l-4.63,22.1h-22.65Z" transform="translate(-32.61 -472.44)"/><path d="M1802.39,794.33l-4.63,22.1h-22.65l4.63-22.1h22.65m0-13.61h-22.65a13.62,13.62,0,0,0-13.33,10.82l-4.62,22.1a13.6,13.6,0,0,0,13.32,16.4h22.65a13.61,13.61,0,0,0,13.32-10.82l4.63-22.1a13.62,13.62,0,0,0-13.32-16.4Zm0,27.23h0Z" transform="translate(-32.61 -472.44)"/><path class="bcdaedf8-d4a4-4415-b354-bd77693a36e6" d="M45.94,816.43,70.42,699.5h24L70,816.43Z" transform="translate(-32.61 -472.44)"/><path class="bcdaedf8-d4a4-4415-b354-bd77693a36e6" d="M104.51,731.72H126.2l-2.23,11a59.54,59.54,0,0,1,15.19-10,37.85,37.85,0,0,1,14.88-3q10.46,0,16.47,6t6,15.87q0,4.47-2.63,16.91l-10,47.94H141l10.05-48.1q2.24-10.77,2.23-12.84a9.17,9.17,0,0,0-2.59-6.9,10,10,0,0,0-7.22-2.51q-5,0-11.16,4.23a29.34,29.34,0,0,0-9.66,11.16q-2.55,4.95-5.74,20.18l-7.26,34.78H86.8Z" transform="translate(-32.61 -472.44)"/><path class="bcdaedf8-d4a4-4415-b354-bd77693a36e6" d="M258.79,816.43H237.1l1.91-9.17a42.34,42.34,0,0,1-12.24,8.57,34.07,34.07,0,0,1-13.6,2.59q-13.15,0-21.34-9t-8.17-26.52a62.73,62.73,0,0,1,11.48-36.77q11.49-16.44,30.39-16.43,17.07,0,25.61,13.56l9.17-43.79H283.2ZM205.91,782q0,9.09,4.59,14.2a14.57,14.57,0,0,0,11.28,5.1A18.35,18.35,0,0,0,233.39,797q5.38-4.28,8.61-13a48.51,48.51,0,0,0,3.23-16.83q0-9.18-4.94-14.84t-11.41-5.66q-10,0-16.51,11.16A47.42,47.42,0,0,0,205.91,782Z" transform="translate(-32.61 -472.44)"/><path class="bcdaedf8-d4a4-4415-b354-bd77693a36e6" d="M292.16,731.72h22.89L304.6,781.89q-1.91,9-1.91,11.25a8.48,8.48,0,0,0,2.71,6.3,9.57,9.57,0,0,0,6.94,2.63,16.1,16.1,0,0,0,6-1.16,25.51,25.51,0,0,0,6.06-3.51A32,32,0,0,0,330,792a34.36,34.36,0,0,0,4.62-8,75.11,75.11,0,0,0,3.27-12l8.46-40.36h22.89L351.5,816.43H330.12l2.4-11.49q-14,13.48-30.55,13.48-10.46,0-16.43-6t-6-16q0-4.39,2.71-17.47Z" transform="translate(-32.61 -472.44)"/><path class="bcdaedf8-d4a4-4415-b354-bd77693a36e6" d="M365.72,792.74l22.17-3.51q3,7,7.34,9.93t12,2.91q7.81,0,12.53-3.51a7,7,0,0,0,3.27-5.82,6,6,0,0,0-1.68-4.15q-1.76-1.76-9.49-4.31-20.74-6.85-25.68-10.84a19.88,19.88,0,0,1-7.74-16.27,23.26,23.26,0,0,1,7.5-17.31q10.44-10.14,31-10.13,16.35,0,24.73,6a26.1,26.1,0,0,1,10.61,16.19l-21.14,3.67a13.07,13.07,0,0,0-5.42-6.94,23.23,23.23,0,0,0-12.29-3.11q-7.17,0-10.32,2.39c-2.1,1.6-3.15,3.43-3.15,5.51a6.12,6.12,0,0,0,3.19,5.26c1.32.85,5.61,2.34,12.84,4.47q16.74,4.86,22.41,9.57,8,6.62,8,15.95,0,12-10.13,20.9t-28.56,8.85q-18.35,0-28.35-6.74A33.36,33.36,0,0,1,365.72,792.74Z" transform="translate(-32.61 -472.44)"/><path class="bcdaedf8-d4a4-4415-b354-bd77693a36e6" d="M459.54,748.71l3.51-17h11.17L477,718.16l26.24-15.79-6.14,29.35h14l-3.51,17h-14L486.1,784.2a110.34,110.34,0,0,0-2,11,5.2,5.2,0,0,0,1.67,4.11q1.68,1.47,6.07,1.47,1.51,0,7.57-.55l-3.59,17a61.35,61.35,0,0,1-12.12,1.19q-12.12,0-17.63-4.66t-5.5-13q0-3.9,2.95-18l7.1-34.06Z" transform="translate(-32.61 -472.44)"/><path class="bcdaedf8-d4a4-4415-b354-bd77693a36e6" d="M518.91,731.72h21.38l-3.43,16.43q12-18.42,25.92-18.42a26.6,26.6,0,0,1,10.61,2.47l-8.78,18.74a19.53,19.53,0,0,0-6.62-1.11q-5.9,0-12,4.46a29.91,29.91,0,0,0-9.53,11.93q-3.44,7.46-6.78,23.65l-5.58,26.56H501.2Z" transform="translate(-32.61 -472.44)"/><path class="bcdaedf8-d4a4-4415-b354-bd77693a36e6" d="M578,731.72h22.89l-17.71,84.71H560.33Zm6.7-32.22h22.89l-4.31,20.74H580.43Z" transform="translate(-32.61 -472.44)"/><path class="bcdaedf8-d4a4-4415-b354-bd77693a36e6" d="M632.3,755.73,610,753.82a33.61,33.61,0,0,1,13.36-17.71q9.54-6.39,25.24-6.38,16.36,0,24.17,6.58t7.82,16.07a52.85,52.85,0,0,1-.68,8.14q-.68,4.31-4.74,22.65-3.36,15.15-3.35,21.21a43.62,43.62,0,0,0,1.91,12H651.45a43.6,43.6,0,0,1-1.68-9.57,35,35,0,0,1-11.56,8.57,31.46,31.46,0,0,1-13.16,3q-10.53,0-17.39-6.9t-6.86-17.74q0-12.13,7.54-19.39t26.91-8.77q16.37-1.35,21.86-3.27a28.17,28.17,0,0,0,1.44-7.66,7.71,7.71,0,0,0-3-6.14c-2-1.65-4.89-2.47-8.77-2.47q-6.14,0-9.69,2.51A12.5,12.5,0,0,0,632.3,755.73ZM654.08,777a47.77,47.77,0,0,1-5.51,1q-17.22,2.09-22.49,6.06a9.26,9.26,0,0,0-3.75,7.74,9,9,0,0,0,2.88,6.74,10.46,10.46,0,0,0,7.57,2.75,19.94,19.94,0,0,0,9.77-2.51,17.11,17.11,0,0,0,6.86-6.46q2.28-3.94,4-12.32Z" transform="translate(-32.61 -472.44)"/><path class="bcdaedf8-d4a4-4415-b354-bd77693a36e6" d="M682.18,792.74l22.17-3.51q3,7,7.34,9.93c2.93,1.94,6.91,2.91,12,2.91q7.82,0,12.52-3.51a7,7,0,0,0,3.27-5.82,6,6,0,0,0-1.68-4.15q-1.75-1.76-9.49-4.31-20.73-6.85-25.68-10.84a19.88,19.88,0,0,1-7.74-16.27,23.26,23.26,0,0,1,7.5-17.31q10.46-10.14,31-10.13,16.35,0,24.72,6a26.06,26.06,0,0,1,10.61,16.19l-21.14,3.67a13,13,0,0,0-5.42-6.94,23.19,23.19,0,0,0-12.28-3.11q-7.18,0-10.33,2.39c-2.1,1.6-3.15,3.43-3.15,5.51a6.12,6.12,0,0,0,3.19,5.26q2,1.27,12.84,4.47,16.76,4.86,22.41,9.57,8,6.62,8,15.95,0,12-10.13,20.9t-28.56,8.85q-18.35,0-28.35-6.74A33.41,33.41,0,0,1,682.18,792.74Z" transform="translate(-32.61 -472.44)"/><path class="bcdaedf8-d4a4-4415-b354-bd77693a36e6" d="M813.75,778.54l22.89-1.19q.48,10.92,3.75,14.75,5.26,6.23,19.46,6.22,11.8,0,17.07-4.23c3.51-2.81,5.27-6.22,5.27-10.2a11,11,0,0,0-4.31-8.78q-3-2.62-16.63-8.53t-19.86-9.85a28.93,28.93,0,0,1-9.85-10.25A29.34,29.34,0,0,1,828,731.72a31.66,31.66,0,0,1,10.69-24.48q10.68-9.74,30.94-9.74,20.58,0,31.87,9.66t12.4,25.68l-23.05,1q-.87-8.39-6.06-12.85t-15.31-4.46q-10,0-14.24,3.51a11,11,0,0,0-4.27,8.85,10.35,10.35,0,0,0,3.91,8.3q3.9,3.35,17.31,9.17,20.18,8.69,25.68,14.12,8.22,8,8.22,20.49,0,15.48-12.25,26.44t-34.1,11q-15.08,0-26.12-5.06T818,799.28A42.83,42.83,0,0,1,813.75,778.54Z" transform="translate(-32.61 -472.44)"/><path class="bcdaedf8-d4a4-4415-b354-bd77693a36e6" d="M945.46,755.73l-22.33-1.91a33.61,33.61,0,0,1,13.36-17.71q9.53-6.39,25.24-6.38,16.37,0,24.17,6.58t7.82,16.07a52.85,52.85,0,0,1-.68,8.14q-.67,4.31-4.75,22.65-3.35,15.15-3.35,21.21a43.66,43.66,0,0,0,1.92,12H964.61a43.6,43.6,0,0,1-1.68-9.57,35,35,0,0,1-11.56,8.57,31.46,31.46,0,0,1-13.16,3q-10.53,0-17.39-6.9T914,793.78q0-12.13,7.54-19.39t26.91-8.77q16.37-1.35,21.86-3.27a28.08,28.08,0,0,0,1.43-7.66,7.7,7.7,0,0,0-3-6.14c-2-1.65-4.89-2.47-8.77-2.47q-6.13,0-9.69,2.51A12.5,12.5,0,0,0,945.46,755.73ZM967.24,777a47.77,47.77,0,0,1-5.51,1q-17.22,2.09-22.49,6.06a9.26,9.26,0,0,0-3.75,7.74,9,9,0,0,0,2.87,6.74,10.48,10.48,0,0,0,7.58,2.75,19.94,19.94,0,0,0,9.77-2.51,17.11,17.11,0,0,0,6.86-6.46q2.28-3.94,4-12.32Z" transform="translate(-32.61 -472.44)"/><path class="bcdaedf8-d4a4-4415-b354-bd77693a36e6" d="M998.13,816.43l24.49-116.93h22.81L1021,816.43Z" transform="translate(-32.61 -472.44)"/><path class="bcdaedf8-d4a4-4415-b354-bd77693a36e6" d="M1055.67,731.72h22.89l-17.71,84.71H1038Zm6.7-32.22h22.89L1081,720.24h-22.89Z" transform="translate(-32.61 -472.44)"/><path class="bcdaedf8-d4a4-4415-b354-bd77693a36e6" d="M1095.65,731.72h21.7l-2.24,11a59.58,59.58,0,0,1,15.2-10,37.76,37.76,0,0,1,14.87-3q10.46,0,16.47,6t6,15.87q0,4.47-2.64,16.91l-10,47.94h-22.89l10-48.1q2.24-10.77,2.24-12.84a9.17,9.17,0,0,0-2.6-6.9,9.93,9.93,0,0,0-7.21-2.51q-5,0-11.17,4.23a29.32,29.32,0,0,0-9.65,11.16q-2.55,4.95-5.75,20.18l-7.25,34.78H1078Z" transform="translate(-32.61 -472.44)"/><path class="bcdaedf8-d4a4-4415-b354-bd77693a36e6" d="M1254.16,781.17h-57.43c0,.91-.08,1.6-.08,2.08q0,8.44,4.82,13.64a15.49,15.49,0,0,0,11.77,5.18q11.4,0,17.79-11.8l20.49,3.43q-6,12.36-16,18.54a41.87,41.87,0,0,1-22.45,6.18q-17.07,0-27.76-10.81T1174.64,779a52,52,0,0,1,9.65-30.95q13.15-18.35,37.56-18.34,15.56,0,24.73,9.61t9.17,26.92A64,64,0,0,1,1254.16,781.17Zm-19.31-13.95c.06-1,.08-1.79.08-2.32q0-9.4-4.22-14.12a14.51,14.51,0,0,0-11.33-4.7,18,18,0,0,0-12.72,5.34q-5.62,5.36-7.62,15.8Z" transform="translate(-32.61 -472.44)"/><path class="bcdaedf8-d4a4-4415-b354-bd77693a36e6" d="M1273.25,731.72h21.37l-3.43,16.43q12-18.42,25.92-18.42a26.56,26.56,0,0,1,10.61,2.47L1319,750.94a19.57,19.57,0,0,0-6.62-1.11q-5.91,0-12,4.46a30.08,30.08,0,0,0-9.53,11.93q-3.42,7.46-6.78,23.65l-5.58,26.56h-22.89Z" transform="translate(-32.61 -472.44)"/><path class="bcdaedf8-d4a4-4415-b354-bd77693a36e6" d="M1347,755.73l-22.33-1.91A33.56,33.56,0,0,1,1338,736.11q9.52-6.39,25.24-6.38,16.35,0,24.17,6.58t7.82,16.07a52.85,52.85,0,0,1-.68,8.14q-.67,4.31-4.75,22.65-3.35,15.15-3.35,21.21a43.66,43.66,0,0,0,1.92,12h-22.26a44.18,44.18,0,0,1-1.67-9.57,35.07,35.07,0,0,1-11.57,8.57,31.42,31.42,0,0,1-13.16,3q-10.53,0-17.39-6.9t-6.85-17.74q0-12.13,7.53-19.39t26.92-8.77q16.35-1.35,21.86-3.27a28.48,28.48,0,0,0,1.43-7.66,7.7,7.7,0,0,0-3-6.14q-3-2.47-8.77-2.47-6.15,0-9.69,2.51A12.5,12.5,0,0,0,1347,755.73ZM1368.75,777a48.19,48.19,0,0,1-5.51,1q-17.22,2.09-22.49,6.06a9.26,9.26,0,0,0-3.75,7.74,9,9,0,0,0,2.87,6.74,10.48,10.48,0,0,0,7.58,2.75,20,20,0,0,0,9.77-2.51,17.17,17.17,0,0,0,6.86-6.46q2.26-3.94,4-12.32Z" transform="translate(-32.61 -472.44)"/><path class="bcdaedf8-d4a4-4415-b354-bd77693a36e6" d="M1396.85,792.74l22.17-3.51q3,7,7.34,9.93t12,2.91q7.82,0,12.53-3.51a7,7,0,0,0,3.27-5.82,6,6,0,0,0-1.68-4.15q-1.76-1.76-9.49-4.31-20.75-6.85-25.68-10.84a19.88,19.88,0,0,1-7.74-16.27,23.26,23.26,0,0,1,7.5-17.31q10.44-10.14,31-10.13,16.35,0,24.73,6a26.1,26.1,0,0,1,10.61,16.19l-21.14,3.67a13.07,13.07,0,0,0-5.42-6.94,23.23,23.23,0,0,0-12.29-3.11q-7.17,0-10.32,2.39c-2.1,1.6-3.16,3.43-3.16,5.51a6.13,6.13,0,0,0,3.2,5.26c1.32.85,5.61,2.34,12.84,4.47q16.74,4.86,22.41,9.57,8,6.62,8,15.95,0,12-10.13,20.9t-28.56,8.85q-18.35,0-28.35-6.74A33.36,33.36,0,0,1,1396.85,792.74Z" transform="translate(-32.61 -472.44)"/><path class="bcdaedf8-d4a4-4415-b354-bd77693a36e6" d="M1490,794.33h23.06l-3.83,18.27Q1506,828.4,1498.77,835t-18.71,6.82l2.24-10.61a17,17,0,0,0,8.89-4.58q3.15-3.32,4.67-10.17h-10.53Z" transform="translate(-32.61 -472.44)"/><path class="bcdaedf8-d4a4-4415-b354-bd77693a36e6" d="M1621.69,784.52l22.25,3.59q-5.51,14.83-16.27,22.57a41.67,41.67,0,0,1-25,7.74q-16.18,0-25.68-9.65t-9.49-26.56a60.8,60.8,0,0,1,5.74-26.08,44,44,0,0,1,17.31-19.34,47.71,47.71,0,0,1,25.36-7.06q15,0,23.93,7.81t10.05,20.58l-21.77,2.32c-.54-4.74-2-8.22-4.35-10.45a13,13,0,0,0-9.29-3.35,18.65,18.65,0,0,0-12.37,4.94q-5.73,4.95-8.81,14.8a62.06,62.06,0,0,0-3.07,18.46q0,7.5,3.67,11.57a11.85,11.85,0,0,0,9.17,4.07,17,17,0,0,0,10.61-4Q1618.81,792.5,1621.69,784.52Z" transform="translate(-32.61 -472.44)"/><path class="bcdaedf8-d4a4-4415-b354-bd77693a36e6" d="M1654.65,794.33h22.66l-4.63,22.1H1650Z" transform="translate(-32.61 -472.44)"/><path class="bcdaedf8-d4a4-4415-b354-bd77693a36e6" d="M1721.36,755.73,1699,753.82a33.56,33.56,0,0,1,13.36-17.71q9.52-6.39,25.24-6.38,16.35,0,24.17,6.58t7.81,16.07a52.79,52.79,0,0,1-.67,8.14q-.69,4.31-4.75,22.65-3.35,15.15-3.35,21.21a43.66,43.66,0,0,0,1.92,12H1740.5a44.18,44.18,0,0,1-1.67-9.57,35.07,35.07,0,0,1-11.57,8.57,31.46,31.46,0,0,1-13.16,3q-10.53,0-17.39-6.9t-6.86-17.74q0-12.13,7.54-19.39t26.92-8.77q16.35-1.35,21.86-3.27a28.48,28.48,0,0,0,1.43-7.66,7.7,7.7,0,0,0-2.95-6.14q-3-2.47-8.77-2.47-6.15,0-9.69,2.51A12.5,12.5,0,0,0,1721.36,755.73ZM1743.13,777a47.54,47.54,0,0,1-5.5,1q-17.22,2.09-22.49,6.06a9.26,9.26,0,0,0-3.75,7.74,9,9,0,0,0,2.87,6.74,10.48,10.48,0,0,0,7.58,2.75,20,20,0,0,0,9.77-2.51,17.17,17.17,0,0,0,6.86-6.46q2.27-3.94,4-12.32Z" transform="translate(-32.61 -472.44)"/><path class="bcdaedf8-d4a4-4415-b354-bd77693a36e6" d="M1779.45,794.33h22.65l-4.62,22.1h-22.65Z" transform="translate(-32.61 -472.44)"/><path class="b0c8b657-5544-4169-8d9a-8638488fe01c" d="M51.24,633.44,75.91,505.12A47.41,47.41,0,0,0,77,494.45,36.3,36.3,0,0,0,73.44,478h84.67A51.32,51.32,0,0,0,150,490.48a59.31,59.31,0,0,0-4.8,14.64L120.57,633.44a46.8,46.8,0,0,0-1.1,10.67A36.23,36.23,0,0,0,123,660.52H38.37a62.18,62.18,0,0,0,5.2-7.65A63.16,63.16,0,0,0,51.24,633.44Z" transform="translate(-32.61 -472.44)"/><path d="M123,666.12H38.37a5.59,5.59,0,0,1-4.44-9,60.27,60.27,0,0,0,4.73-6.93,58.36,58.36,0,0,0,7.09-17.84l24.66-128.3a42,42,0,0,0,1-9.61,31,31,0,0,0-3-13.92,5.59,5.59,0,0,1,5-8.09h84.67a5.59,5.59,0,0,1,4.16,9.33,46,46,0,0,0-7.18,11.1,53.84,53.84,0,0,0-4.36,13.27L126.06,634.49a42.52,42.52,0,0,0-1,9.62A31,31,0,0,0,128,658a5.6,5.6,0,0,1-5,8.1Zm-74.2-11.19H115.1a46.4,46.4,0,0,1-1.22-10.82,52.36,52.36,0,0,1,1.25-12l24.61-128.09a65.58,65.58,0,0,1,5.23-16q1.09-2.31,2.32-4.46H81.37a45.93,45.93,0,0,1,1.22,10.82,52.46,52.46,0,0,1-1.24,11.94L56.73,634.49v0A68.32,68.32,0,0,1,48.83,654.93Zm2.41-21.49h0Z" transform="translate(-32.61 -472.44)"/><path class="af666220-1818-429b-8af3-6d3decb17863" d="M154,633.4l24.66-128.51a46.08,46.08,0,0,0,1.09-10.58A35.7,35.7,0,0,0,176.19,478h99.19L317.85,623.5l22.76-118.61a46.64,46.64,0,0,0,1.09-10.58A35.7,35.7,0,0,0,338.14,478h45.48a43.06,43.06,0,0,0-8.22,12.07,68.74,68.74,0,0,0-4.66,14.79L340.88,660.52H252.35L207.4,512.17,184.13,633.4A47,47,0,0,0,183,644.09a36.29,36.29,0,0,0,3.56,16.43H141.12a43.24,43.24,0,0,0,5.21-7.12A56.94,56.94,0,0,0,154,633.4Z" transform="translate(-32.61 -472.44)"/><path d="M340.88,666.12H252.35a5.58,5.58,0,0,1-5.35-4L208.62,535.48l-19,99a42.52,42.52,0,0,0-1,9.64,30.88,30.88,0,0,0,3,13.93,5.6,5.6,0,0,1-5,8.1H141.12a5.6,5.6,0,0,1-4.23-9.26,37.44,37.44,0,0,0,4.53-6.14,52.2,52.2,0,0,0,7.07-18.31l0-.06,24.65-128.52a41.16,41.16,0,0,0,1-9.52,30.42,30.42,0,0,0-3-13.76,5.59,5.59,0,0,1,5-8.11h99.19a5.59,5.59,0,0,1,5.37,4l36,123.22,18.4-95.86a41.82,41.82,0,0,0,1-9.52,30.29,30.29,0,0,0-3-13.76,5.59,5.59,0,0,1,5-8.11h45.48a5.59,5.59,0,0,1,4,9.47,37.25,37.25,0,0,0-7.15,10.5A62.51,62.51,0,0,0,376.23,506L346.37,661.58A5.6,5.6,0,0,1,340.88,666.12ZM256.5,654.93h79.76l29-151.1a73.91,73.91,0,0,1,5.06-16,46.64,46.64,0,0,1,2.14-4.16H346.08a45.8,45.8,0,0,1,1.21,10.68,52.21,52.21,0,0,1-1.24,11.85L323.34,624.55a5.59,5.59,0,0,1-10.86.52L271.19,483.63H184.14a45.8,45.8,0,0,1,1.21,10.68,51.58,51.58,0,0,1-1.26,11.87L159.5,634.42a62.66,62.66,0,0,1-7.57,20.51h26.74a46.63,46.63,0,0,1-1.22-10.84,52.87,52.87,0,0,1,1.23-12l23.23-121a5.59,5.59,0,0,1,10.84-.56Z" transform="translate(-32.61 -472.44)"/><path class="f77470ca-8741-4ceb-9d0c-7a8978c874d0" d="M382.52,633.44l24.67-128.32a47.41,47.41,0,0,0,1.09-10.67A36.3,36.3,0,0,0,404.72,478H555.43q19.73,0,29,9.58t9.32,26.81a86.3,86.3,0,0,1-1.64,15.87l-14.8,78q-4.94,24.35-17.81,37.48Q545,660.53,520.36,660.52H369.65a50.79,50.79,0,0,0,5.2-7.38A62.49,62.49,0,0,0,382.52,633.44Zm69.88-3.06h33.16q11.51,0,16.16-5.19,3.55-3.83,5.76-16.13l15.34-79.56q1.09-5.19,1.23-6.56c.1-.91.14-2.37.14-4.37q0-5.75-3.15-8.07t-11.92-2.33H476Z" transform="translate(-32.61 -472.44)"/><path d="M520.36,666.12H369.65a5.59,5.59,0,0,1-4.34-9.12,47.21,47.21,0,0,0,4.63-6.53A57.79,57.79,0,0,0,377,632.38l24.66-128.32a42,42,0,0,0,1-9.61,31,31,0,0,0-3-13.92,5.59,5.59,0,0,1,5-8.09H555.43c14.65,0,25.77,3.79,33.05,11.27s10.9,17.77,10.9,30.71a92.18,92.18,0,0,1-1.74,16.91l-14.79,78c-3.51,17.31-10,30.86-19.32,40.36C552.8,660.58,538.28,666.12,520.36,666.12ZM380.27,654.93H520.36c15,0,26.53-4.28,35.19-13.1,7.77-7.92,13.26-19.59,16.32-34.67l14.78-77.91a81,81,0,0,0,1.55-14.83c0-10.07-2.53-17.56-7.73-22.91s-13.52-7.88-25-7.88H412.65a45.92,45.92,0,0,1,1.23,10.82,52.43,52.43,0,0,1-1.25,11.94L388,634.49h0A67.9,67.9,0,0,1,380.27,654.93Zm2.25-21.49h0Zm103,2.54H452.4a5.59,5.59,0,0,1-5.49-6.65l23.56-122.22a5.59,5.59,0,0,1,5.49-4.53h33.16c7.24,0,12.08,1.09,15.24,3.42,2.47,1.83,5.42,5.49,5.42,12.57,0,2.26-.06,3.91-.16,4.94-.08.73-.3,2.26-1.33,7.15L513,610.12c-1.69,9.43-4,15.45-7.15,18.88C501.68,633.6,494.85,636,485.56,636Zm-26.39-11.19h26.39c5.89,0,10-1.15,12-3.33.64-.69,2.64-3.46,4.41-13.39l15.36-79.63c.68-3.25,1.08-5.23,1.16-6.06s.11-2.07.11-3.81-.34-3.17-.88-3.57c-.07,0-1.75-1.23-8.6-1.23H480.58Z" transform="translate(-32.61 -472.44)"/><path class="a3e0369c-5e19-4429-ab4a-69f171f7586e" d="M604.75,608.27l19.73-103.15a46.83,46.83,0,0,0,1.09-10.67A36.3,36.3,0,0,0,622,478h84.67a51.62,51.62,0,0,0-8.08,12.45,59.21,59.21,0,0,0-4.79,14.63l-20,103.94a57.51,57.51,0,0,0-1.37,10.67q0,5.74,3.29,8.2c2.19,1.65,6.21,2.46,12.06,2.46h56.44q11.52,0,16.17-5.2,3.55-3.84,5.75-16.16l20-104.13a53.5,53.5,0,0,0,1.09-11.12A34.47,34.47,0,0,0,783.68,478h45.49a50.88,50.88,0,0,0-8.09,12.35,58.41,58.41,0,0,0-4.8,14.51L796.44,608.17Q794,621.06,791,627.91a55.61,55.61,0,0,1-30.8,28.92,58.49,58.49,0,0,1-20.4,3.69H641.44q-19.71,0-29-9.56t-9.3-27.1A79.15,79.15,0,0,1,604.75,608.27Z" transform="translate(-32.61 -472.44)"/><path d="M739.76,666.12H641.44c-14.64,0-25.76-3.79-33-11.26s-10.89-17.87-10.89-31a85.18,85.18,0,0,1,1.74-16.66L619,504.07a41.93,41.93,0,0,0,1-9.62,31,31,0,0,0-3-13.92,5.59,5.59,0,0,1,5-8.09h84.67a5.6,5.6,0,0,1,4.17,9.33,45.89,45.89,0,0,0-7.19,11.1,54.2,54.2,0,0,0-4.36,13.26l-20,104a54,54,0,0,0-1.27,9.62c0,1.1.14,3,1.05,3.72.19.15,2,1.35,8.71,1.35h56.44c5.89,0,10-1.16,12-3.34.63-.69,2.64-3.47,4.41-13.41l20-104.21a48.15,48.15,0,0,0,1-10.06,29,29,0,0,0-3-13.22,5.59,5.59,0,0,1,5-8.11h45.49a5.59,5.59,0,0,1,4.15,9.34,46,46,0,0,0-7.2,11,53.15,53.15,0,0,0-4.34,13.12L801.93,609.22c-1.73,9.07-3.64,15.91-5.84,20.93a61.23,61.23,0,0,1-34,31.92A64.13,64.13,0,0,1,739.76,666.12ZM629.94,483.63a45.92,45.92,0,0,1,1.23,10.82,52.21,52.21,0,0,1-1.25,11.95L610.25,609.32s0,0,0,0a74.69,74.69,0,0,0-1.53,14.49c0,10.26,2.53,17.85,7.72,23.2s13.51,7.87,25,7.87h98.32a53,53,0,0,0,18.46-3.35,50,50,0,0,0,27.63-25.94c1.83-4.17,3.55-10.4,5.1-18.52l19.84-103.29A64.15,64.15,0,0,1,816,488c.72-1.5,1.47-3,2.27-4.34H791.65a42.48,42.48,0,0,1,1.19,10.14,59.11,59.11,0,0,1-1.22,12.28l-20,104c-1.68,9.44-4,15.48-7.14,18.91-4.13,4.62-11,7-20.27,7H687.78c-7.27,0-12.17-1.14-15.42-3.59-2.51-1.88-5.52-5.61-5.52-12.67A62,62,0,0,1,668.32,608l20-103.89a65.48,65.48,0,0,1,5.24-16q1.1-2.32,2.31-4.46ZM604.75,608.27h0Z" transform="translate(-32.61 -472.44)"/><path class="aeb97e6c-dea7-434f-9fc0-3de7036a4185" d="M833.55,566.07l9.59-50q4.11-21,20.28-30.35Q876.83,478,899,478h118.37l-.55,37.27a31.68,31.68,0,0,0-12.32-5.62,74.92,74.92,0,0,0-15.9-1.51h-63a20.4,20.4,0,0,0-9.59,1.92q-3.57,1.92-4.66,7.68l-1.1,6.3c-.36,2.56-.54,4.11-.54,4.66q0,4.38,2.73,5.34t10.14,1h44.94q21.38,0,30.42,4.65,11.77,6,11.78,22.14v6.56c-.55,2.19-.92,3.74-1.1,4.65l-9.59,49.76q-4.11,21.33-20,30.36-13.15,7.38-35.62,7.37H822.31l.83-36.71a35.86,35.86,0,0,0,14.24,5.35,121.42,121.42,0,0,0,18.36,1.22h63.85c4,0,6.8-.63,8.35-1.91s2.7-3.84,3.43-7.68l1.1-5.75a46.46,46.46,0,0,0,.55-5.21c0-2.19-.42-3.74-1.24-4.65s-2.6-1.37-5.34-1.37H874.92q-21.37,0-30.68-4.66-11.79-5.73-11.79-21.59v-6.84C833,568.54,833.36,567,833.55,566.07Z" transform="translate(-32.61 -472.44)"/><path d="M943.43,666.12H822.31a5.6,5.6,0,0,1-5.59-5.72l.83-36.72a5.59,5.59,0,0,1,8.64-4.56,30.4,30.4,0,0,0,12,4.51,116.66,116.66,0,0,0,17.5,1.16h63.85c3.66,0,4.77-.63,4.84-.67s.79-.92,1.45-4.38L927,614a39.18,39.18,0,0,0,.46-4.17c0-.15,0-.28,0-.4-.27,0-.6,0-1,0H874.92c-15.27,0-26.13-1.72-33.18-5.25-6.76-3.29-14.88-10.6-14.88-26.59v-6.84a5.55,5.55,0,0,1,.17-1.35c.51-2,.86-3.51,1-4.38l9.59-50c3.05-15.65,10.78-27.14,23-34.15,9.77-5.57,22.69-8.4,38.41-8.4h118.37a5.62,5.62,0,0,1,5.6,5.68l-.56,37.26a5.59,5.59,0,0,1-8.94,4.39,26.32,26.32,0,0,0-10.18-4.63,69.72,69.72,0,0,0-14.69-1.37h-63c-3.82,0-5.88.68-6.94,1.25-.78.41-1.44,1.8-1.82,3.79L915.78,525c-.27,1.89-.44,3.2-.46,3.77V529a45.71,45.71,0,0,0,7.28.42h44.94c15.3,0,26.08,1.72,33,5.27s14.82,11,14.82,27.11v6.56a5.17,5.17,0,0,1-.17,1.36c-.51,2.06-.86,3.52-1,4.38l-9.59,49.73c-3,15.84-10.7,27.33-22.73,34.16C972.22,663.39,959.31,666.12,943.43,666.12ZM828,654.93h115.4c13.94,0,25-2.24,32.88-6.66,9.16-5.2,14.81-13.88,17.25-26.54l9.59-49.75c.18-.89.51-2.32,1-4.28v-5.88c0-11.38-5-15.25-8.74-17.16-3.59-1.85-11.32-4-27.87-4H922.6c-5.71,0-9.52-.4-12-1.27-2-.68-6.48-3.08-6.48-10.62a41.56,41.56,0,0,1,.61-5.45l1.12-6.47c1.07-5.64,3.59-9.52,7.51-11.64,3.24-1.74,7.24-2.59,12.25-2.59h63a80.33,80.33,0,0,1,17.09,1.64,38.44,38.44,0,0,1,5.68,1.71l.33-22.3H899c-13.75,0-24.81,2.33-32.85,6.92-9.37,5.39-15.12,14.08-17.56,26.56l-9.59,50a.11.11,0,0,1,0,0c-.18.87-.5,2.28-1,4.23v6.15c0,11.08,4.94,14.76,8.64,16.57s11.66,4.08,28.24,4.08h51.52c2.83,0,6.89.34,9.49,3.21,1.81,2,2.68,4.76,2.68,8.41a47.85,47.85,0,0,1-.61,6l-1.13,6c-1,5.22-2.76,8.79-5.37,10.94s-6.43,3.2-11.91,3.2H855.74a127.26,127.26,0,0,1-19.21-1.3,43.58,43.58,0,0,1-8-2Zm5.52-88.86h0Z" transform="translate(-32.61 -472.44)"/><path class="b3b43e9a-1d02-4977-8a2c-9d5b160a8a36" d="M1111.13,478h80.56l33.16,161.15A63.58,63.58,0,0,0,1235,660.52h-92.07a25.7,25.7,0,0,0,7.13-12.33,44.47,44.47,0,0,0-1.78-21.23q-2.34-8.36-4.26-15.75h-75l-16.39,24.86c-1.8,3.11-2.87,4.95-3.23,5.49a18.25,18.25,0,0,0-2,5.37,27.93,27.93,0,0,0-.4,4.8,33.44,33.44,0,0,0,1.37,8.79H997.14a153.64,153.64,0,0,0,15.07-16.43,217.77,217.77,0,0,0,13.42-17.82l90.71-137.55A29.64,29.64,0,0,0,1111.13,478Zm26,103.58-12.34-56.48-36.31,56.56Z" transform="translate(-32.61 -472.44)"/><path d="M1235,666.12h-92.07a5.59,5.59,0,0,1-4-9.55,20.11,20.11,0,0,0,5.57-9.4,46.67,46.67,0,0,0,.47-5.28,50.9,50.9,0,0,0-2.13-13.42q-1.69-6.09-3.18-11.67h-67.63l-14.73,22.35c-1.72,3-2.85,4.92-3.23,5.49a11.94,11.94,0,0,0-1.18,3.23,23,23,0,0,0-.32,3.86,27.92,27.92,0,0,0,1.17,7.29,5.61,5.61,0,0,1-5.39,7.1H997.14a5.6,5.6,0,0,1-3.79-9.71,147.54,147.54,0,0,0,14.51-15.83A216.12,216.12,0,0,0,1021,623.14l89.19-135.26a21.49,21.49,0,0,0-3.38-6.3,5.59,5.59,0,0,1,4.32-9.14h80.56a5.59,5.59,0,0,1,5.48,4.47l33.16,161.14a58,58,0,0,0,9.19,19.2,5.6,5.6,0,0,1-4.54,8.87Zm-81.38-11.19H1225a68.51,68.51,0,0,1-5.53-14.33l-32.31-157h-66.59c.43,1.13.81,2.31,1.17,3.55a5.56,5.56,0,0,1-.71,4.62l-90.7,137.55a226.21,226.21,0,0,1-13.8,18.33q-3.11,3.84-6.13,7.25h31.23a29.7,29.7,0,0,1-.18-3.2,33.89,33.89,0,0,1,.48-5.75,23.29,23.29,0,0,1,2.6-7.05c.61-1,1.62-2.71,3.32-5.66l16.56-25.14a5.61,5.61,0,0,1,4.67-2.52h75a5.6,5.6,0,0,1,5.41,4.19q1.92,7.35,4.23,15.66a61.63,61.63,0,0,1,2.54,16.43,60.6,60.6,0,0,1-.59,7c0,.2-.06.41-.11.61A29.82,29.82,0,0,1,1153.6,654.93Zm-65.09-67.65a5.59,5.59,0,0,1-4.71-8.61l36.31-56.56a5.65,5.65,0,0,1,5.7-2.48,5.58,5.58,0,0,1,4.47,4.31l12.35,56.48a5.6,5.6,0,0,1-5.45,6.78l-48.66.08Zm33.73-47.78-23.49,36.58,31.47-.05Z" transform="translate(-32.61 -472.44)"/><path class="a9680226-eeb8-427a-b1e8-17d54c54d0bc" d="M1252.79,633.44l24.66-128.32a46.8,46.8,0,0,0,1.1-10.67A36.3,36.3,0,0,0,1275,478h84.94a43.53,43.53,0,0,0-8.22,12.17,69.85,69.85,0,0,0-4.66,14.91l-24.11,125.27h65.21a44.08,44.08,0,0,0,24.39-6.85l-12.88,37H1239.91a51.79,51.79,0,0,0,5.21-7.38A63,63,0,0,0,1252.79,633.44Z" transform="translate(-32.61 -472.44)"/><path d="M1399.66,666.12H1239.91a5.6,5.6,0,0,1-4.34-9.13,45.63,45.63,0,0,0,4.64-6.53,57.84,57.84,0,0,0,7.09-18.1L1272,504.06a41.23,41.23,0,0,0,1-9.61,31,31,0,0,0-3-13.92,5.59,5.59,0,0,1,5-8.09h84.94a5.59,5.59,0,0,1,4,9.45,37.9,37.9,0,0,0-7.17,10.61,64.85,64.85,0,0,0-4.28,13.71l-22.82,118.58h58.44a38.3,38.3,0,0,0,21.36-6,5.59,5.59,0,0,1,8.31,6.54l-12.88,37A5.59,5.59,0,0,1,1399.66,666.12Zm-149.12-11.19h145.15l7.3-21a52.84,52.84,0,0,1-14.84,2h-65.21a5.59,5.59,0,0,1-5.49-6.65l24.11-125.27a75.47,75.47,0,0,1,5-16.15q1-2.19,2.19-4.28h-65.88a46.46,46.46,0,0,1,1.22,10.82,52.21,52.21,0,0,1-1.25,11.95l-24.6,128.09v0A68.11,68.11,0,0,1,1250.54,654.93Zm2.25-21.49h0Z" transform="translate(-32.61 -472.44)"/><path class="b6d7026d-a02f-4c61-a854-09a3ef6d9924" d="M1422.41,608.27l14.79-78q4.65-24.07,18.36-37.48Q1470.63,478,1494.2,478H1603l-.55,37.82a31.3,31.3,0,0,0-13.84-6.31,109.72,109.72,0,0,0-19-1.37h-38.08q-13.71,0-18,4.24t-7,19l-15.07,77.1a52.57,52.57,0,0,0-.83,8.48q0,8.21,4.66,10.8t16.17,2.59h36.17a131.41,131.41,0,0,0,18.5-1.22,83.69,83.69,0,0,0,17.4-4.53l-12.33,35.89H1459.12q-19.72,0-29-9.56t-9.32-27.1A79.19,79.19,0,0,1,1422.41,608.27Z" transform="translate(-32.61 -472.44)"/><path d="M1571.2,666.12H1459.12c-14.66,0-25.78-3.79-33-11.26s-10.9-17.87-10.9-31a85.46,85.46,0,0,1,1.75-16.66l14.79-78c3.31-17.13,10-30.73,19.94-40.44,11.08-10.86,25.39-16.37,42.55-16.37H1603a5.6,5.6,0,0,1,5.6,5.68l-.55,37.81a5.59,5.59,0,0,1-9,4.32,25.65,25.65,0,0,0-11.4-5.2,104.61,104.61,0,0,0-18-1.28h-38.08c-10.84,0-13.57,2.17-14,2.6-.91.91-3.26,4.28-5.44,16.06L1497,609.59a46.94,46.94,0,0,0-.72,7.4c0,1.84.22,5,1.78,5.91,1.27.71,4.7,1.89,13.45,1.89h36.17a126.28,126.28,0,0,0,17.71-1.17,78.08,78.08,0,0,0,16.23-4.22,5.58,5.58,0,0,1,7.24,7.05l-12.33,35.89A5.59,5.59,0,0,1,1571.2,666.12Zm-77-182.49c-14.32,0-25.68,4.3-34.72,13.17-8.28,8.1-13.92,19.72-16.79,34.56l-14.79,77.95a.13.13,0,0,1,0,.06,74.28,74.28,0,0,0-1.54,14.49c0,10.26,2.53,17.84,7.73,23.2s13.51,7.87,25,7.87H1567.2l7.47-21.73c-2.6.63-5.18,1.12-7.75,1.49a136.54,136.54,0,0,1-19.29,1.29h-36.17c-8.84,0-14.85-1.05-18.89-3.3-3.43-1.91-7.53-6.18-7.53-15.69a58.37,58.37,0,0,1,.9-9.39l15.1-77.26c2.08-11.19,4.79-18.16,8.53-21.89,4-4,11-5.87,21.9-5.87h38.08a115.41,115.41,0,0,1,20,1.46,36.1,36.1,0,0,1,7.39,2.18l.33-22.59Zm-71.79,124.64h0Z" transform="translate(-32.61 -472.44)"/><path class="bfebc059-cbb7-4f59-bd7a-12336a14a0f9" d="M1686.56,478h80.56l33.15,161.15a63.6,63.6,0,0,0,10.14,21.34h-92.07a25.78,25.78,0,0,0,7.13-12.33,58.43,58.43,0,0,0,.54-6.3,56,56,0,0,0-2.33-14.93q-2.34-8.36-4.25-15.75h-75l-16.4,24.86c-1.79,3.11-2.86,4.95-3.22,5.49a17.71,17.71,0,0,0-2,5.37,27.93,27.93,0,0,0-.4,4.8,33,33,0,0,0,1.37,8.79h-51.24a153.64,153.64,0,0,0,15.06-16.43,217.87,217.87,0,0,0,13.43-17.82l90.7-137.55A29.63,29.63,0,0,0,1686.56,478Zm26,103.58-12.34-56.48-36.32,56.56Z" transform="translate(-32.61 -472.44)"/><path d="M1810.41,666.12h-92.07a5.59,5.59,0,0,1-3.95-9.55,20.2,20.2,0,0,0,5.57-9.4,48,48,0,0,0,.46-5.28,51.26,51.26,0,0,0-2.12-13.42q-1.71-6.09-3.19-11.67h-67.62l-14.74,22.35c-1.71,3-2.85,4.92-3.22,5.49a11.6,11.6,0,0,0-1.18,3.23,23,23,0,0,0-.32,3.86,27.86,27.86,0,0,0,1.16,7.29,5.6,5.6,0,0,1-5.38,7.1h-51.24a5.6,5.6,0,0,1-3.79-9.71,148.59,148.59,0,0,0,14.5-15.83c4.68-5.6,9.08-11.44,13.15-17.44l89.19-135.26a21.27,21.27,0,0,0-3.39-6.3,5.59,5.59,0,0,1,4.33-9.14h80.56a5.61,5.61,0,0,1,5.48,4.47l33.15,161.14a58.22,58.22,0,0,0,9.19,19.2,5.59,5.59,0,0,1-4.53,8.87ZM1729,654.93h71.36a69.63,69.63,0,0,1-5.53-14.33l-32.3-157H1696c.43,1.13.82,2.31,1.17,3.55a5.55,5.55,0,0,1-.7,4.62l-90.7,137.55a226.32,226.32,0,0,1-13.81,18.33q-3.09,3.84-6.13,7.25H1617a29.7,29.7,0,0,1-.18-3.2,33.88,33.88,0,0,1,.49-5.75,23.51,23.51,0,0,1,2.59-7.05c.61-1,1.62-2.71,3.32-5.66l16.57-25.14a5.61,5.61,0,0,1,4.67-2.52h75a5.6,5.6,0,0,1,5.41,4.19q1.9,7.35,4.22,15.66a61.63,61.63,0,0,1,2.54,16.43,60.6,60.6,0,0,1-.59,7c0,.2-.06.41-.1.61A30.59,30.59,0,0,1,1729,654.93Zm-65.1-67.65a5.6,5.6,0,0,1-4.71-8.61l36.32-56.56a5.59,5.59,0,0,1,10.17,1.83l12.34,56.48a5.59,5.59,0,0,1-5.45,6.78l-48.66.08Zm33.73-47.78-23.48,36.58,31.47-.05Z" transform="translate(-32.61 -472.44)"/><path d="M1419.2,865.81h12.41v21.78a34.27,34.27,0,0,1-1.22,10.44,12,12,0,0,1-4.89,6.06,16.46,16.46,0,0,1-9.42,2.49c-4,0-7.18-.55-9.41-1.64a11.84,11.84,0,0,1-5.15-4.8,18.13,18.13,0,0,1-2.15-7.81l11.84-1.61a13.31,13.31,0,0,0,.47,3.94,4.32,4.32,0,0,0,1.47,2.08,3.46,3.46,0,0,0,2,.51,3.32,3.32,0,0,0,3-1.54q1-1.55,1-5.2Z" transform="translate(-32.61 -472.44)"/><path d="M1437,887h16.18v8.62H1437Z" transform="translate(-32.61 -472.44)"/><path d="M1456.71,885.69q0-11.43,4.12-16t12.53-4.56a18.91,18.91,0,0,1,6.65,1,12.55,12.55,0,0,1,4.24,2.6,14.11,14.11,0,0,1,2.58,3.36,17.87,17.87,0,0,1,1.52,4.12,38.8,38.8,0,0,1,1.12,9.35q0,10.92-3.69,16t-12.72,5.06a17.85,17.85,0,0,1-8.17-1.61,13.33,13.33,0,0,1-5.12-4.73,18.06,18.06,0,0,1-2.25-6.06A41.21,41.21,0,0,1,1456.71,885.69Zm11,0c0,5.1.45,8.59,1.35,10.45s2.21,2.81,3.93,2.81a4.09,4.09,0,0,0,2.93-1.19,7.44,7.44,0,0,0,1.84-3.76,39.65,39.65,0,0,0,.58-8c0-5.33-.45-8.9-1.35-10.74a4.32,4.32,0,0,0-4.06-2.74,4.13,4.13,0,0,0-4,2.8Q1467.76,878.15,1467.76,885.72Z" transform="translate(-32.61 -472.44)"/><path d="M1494.25,865.81h32.52v7.52a40.6,40.6,0,0,0-7.09,8.28,48.34,48.34,0,0,0-5.44,12.06,56.62,56.62,0,0,0-2.13,12.23H1501a64.14,64.14,0,0,1,4.13-16.47,61.39,61.39,0,0,1,8.91-14.21h-19.8Z" transform="translate(-32.61 -472.44)"/><path d="M1531.41,885.69q0-11.43,4.12-16t12.54-4.56a18.89,18.89,0,0,1,6.64,1,12.45,12.45,0,0,1,4.24,2.6,14.11,14.11,0,0,1,2.58,3.36,17.43,17.43,0,0,1,1.52,4.12,38.31,38.31,0,0,1,1.12,9.35q0,10.92-3.69,16t-12.71,5.06a17.89,17.89,0,0,1-8.18-1.61,13.31,13.31,0,0,1-5.11-4.73,17.84,17.84,0,0,1-2.26-6.06A41.21,41.21,0,0,1,1531.41,885.69Zm11,0c0,5.1.45,8.59,1.35,10.45s2.21,2.81,3.93,2.81a4.13,4.13,0,0,0,2.94-1.19,7.36,7.36,0,0,0,1.83-3.76,39.49,39.49,0,0,0,.59-8c0-5.33-.45-8.9-1.36-10.74a4.32,4.32,0,0,0-4.06-2.74,4.13,4.13,0,0,0-4,2.8Q1542.46,878.15,1542.46,885.72Z" transform="translate(-32.61 -472.44)"/><path d="M1568.77,885.69q0-11.43,4.11-16t12.54-4.56a18.85,18.85,0,0,1,6.64,1,12.45,12.45,0,0,1,4.24,2.6,13.86,13.86,0,0,1,2.58,3.36,17.43,17.43,0,0,1,1.52,4.12,38.31,38.31,0,0,1,1.12,9.35q0,10.92-3.69,16t-12.71,5.06a17.89,17.89,0,0,1-8.18-1.61,13.31,13.31,0,0,1-5.11-4.73,17.84,17.84,0,0,1-2.26-6.06A41.24,41.24,0,0,1,1568.77,885.69Zm11,0c0,5.1.45,8.59,1.36,10.45s2.21,2.81,3.92,2.81a4.13,4.13,0,0,0,2.94-1.19,7.36,7.36,0,0,0,1.83-3.76,39.49,39.49,0,0,0,.59-8c0-5.33-.45-8.9-1.35-10.74a4.34,4.34,0,0,0-4.06-2.74,4.14,4.14,0,0,0-4,2.8Q1579.81,878.15,1579.81,885.72Z" transform="translate(-32.61 -472.44)"/><path d="M1612.82,884.35a10.62,10.62,0,0,1-3.83-3.12,9.18,9.18,0,0,1-1.64-5.41q0-5,4.73-8.23,3.69-2.46,9.76-2.46,8,0,11.88,3.06a9.46,9.46,0,0,1,3.84,7.71A9.13,9.13,0,0,1,1636,881a12.67,12.67,0,0,1-3.61,3.39,11.23,11.23,0,0,1,4.86,4.13,10.59,10.59,0,0,1,1.59,5.69,11.82,11.82,0,0,1-1.38,5.61,11.22,11.22,0,0,1-3.39,4,13.76,13.76,0,0,1-5,2.09,29.06,29.06,0,0,1-6.39.67c-4.24,0-7.49-.5-9.73-1.5a11,11,0,0,1-5.11-4.43,12.46,12.46,0,0,1-1.75-6.54,9.66,9.66,0,0,1,6.7-9.76Zm4.4,9.38a6,6,0,0,0,1.61,4.33,5,5,0,0,0,3.69,1.68,4.81,4.81,0,0,0,3.59-1.71,6.72,6.72,0,0,0,0-8.68,4.93,4.93,0,0,0-3.7-1.69,4.81,4.81,0,0,0-3.63,1.64A6.19,6.19,0,0,0,1617.22,893.73Zm.6-17.26a4.44,4.44,0,0,0,1.3,3.35,4.71,4.71,0,0,0,3.46,1.27,4.2,4.2,0,0,0,3.14-1.25,4.48,4.48,0,0,0,1.23-3.26,4.6,4.6,0,0,0-1.28-3.37,4.41,4.41,0,0,0-3.28-1.3,4.35,4.35,0,0,0-4.57,4.56Z" transform="translate(-32.61 -472.44)"/><path d="M1654.27,877.4l-10.53-1.88a13.2,13.2,0,0,1,5-7.71q3.74-2.68,10.57-2.68,7.85,0,11.34,2.92a9.17,9.17,0,0,1,3.5,7.36,8.18,8.18,0,0,1-1.42,4.7,12.09,12.09,0,0,1-4.29,3.69,12.52,12.52,0,0,1,3.55,1.34,8.7,8.7,0,0,1,3.11,3.24,9.9,9.9,0,0,1,1.1,4.8,13.37,13.37,0,0,1-1.83,6.71,12.17,12.17,0,0,1-5.28,5,20.11,20.11,0,0,1-9.05,1.74,23.35,23.35,0,0,1-8.62-1.29,12.82,12.82,0,0,1-5.2-3.76,17.24,17.24,0,0,1-3.13-6.22l11.13-1.47a8.7,8.7,0,0,0,2,4.66,4.9,4.9,0,0,0,3.51,1.3,4.84,4.84,0,0,0,3.73-1.64,6.24,6.24,0,0,0,1.49-4.38,6.1,6.1,0,0,0-1.43-4.32,5.1,5.1,0,0,0-3.9-1.53,14,14,0,0,0-3.61.66l.58-8a10.78,10.78,0,0,0,1.44.14,5.11,5.11,0,0,0,3.66-1.4,4.43,4.43,0,0,0,1.46-3.31,3.94,3.94,0,0,0-1.1-2.92,4,4,0,0,0-3-1.1,4.41,4.41,0,0,0-3.2,1.19A7.25,7.25,0,0,0,1654.27,877.4Z" transform="translate(-32.61 -472.44)"/><path d="M1681,865.81h32.51v7.52a40.86,40.86,0,0,0-7.08,8.28,48,48,0,0,0-5.44,12.06,56.62,56.62,0,0,0-2.13,12.23h-11.1a64.58,64.58,0,0,1,4.12-16.47,61.46,61.46,0,0,1,8.92-14.21H1681Z" transform="translate(-32.61 -472.44)"/><path d="M1724.87,884.35a10.62,10.62,0,0,1-3.83-3.12,9.25,9.25,0,0,1-1.64-5.41q0-5,4.73-8.23,3.69-2.46,9.76-2.46,8,0,11.89,3.06a9.46,9.46,0,0,1,3.84,7.71,9.13,9.13,0,0,1-1.53,5.06,12.81,12.81,0,0,1-3.61,3.39,11.2,11.2,0,0,1,4.85,4.13,10.51,10.51,0,0,1,1.6,5.69,11.82,11.82,0,0,1-1.38,5.61,11.22,11.22,0,0,1-3.39,4,13.82,13.82,0,0,1-5,2.09,28.9,28.9,0,0,1-6.38.67q-6.37,0-9.73-1.5a11,11,0,0,1-5.12-4.43,12.46,12.46,0,0,1-1.75-6.54,9.66,9.66,0,0,1,6.7-9.76Zm4.4,9.38a6,6,0,0,0,1.62,4.33,5,5,0,0,0,3.69,1.68,4.79,4.79,0,0,0,3.58-1.71,6.7,6.7,0,0,0,0-8.68,5,5,0,0,0-3.71-1.69,4.8,4.8,0,0,0-3.62,1.64A6.2,6.2,0,0,0,1729.27,893.73Zm.6-17.26a4.48,4.48,0,0,0,1.3,3.35,4.73,4.73,0,0,0,3.46,1.27,4.2,4.2,0,0,0,3.15-1.25,4.48,4.48,0,0,0,1.23-3.26,4.57,4.57,0,0,0-1.29-3.37,4.84,4.84,0,0,0-6.57,0A4.45,4.45,0,0,0,1729.87,876.47Z" transform="translate(-32.61 -472.44)"/><path d="M1754.46,887h16.18v8.62h-16.18Z" transform="translate(-32.61 -472.44)"/><path d="M1806.41,874.83l-11.07,1.37a5.94,5.94,0,0,0-1.47-3.28,3.54,3.54,0,0,0-2.53-1,4.63,4.63,0,0,0-4.21,2.74c-.73,1.31-1.26,4.12-1.61,8.42a14.27,14.27,0,0,1,4.1-3,11.63,11.63,0,0,1,4.87-1,12.13,12.13,0,0,1,9.06,3.83,13.39,13.39,0,0,1,3.71,9.71,14.32,14.32,0,0,1-1.88,7.24,12.19,12.19,0,0,1-5.19,5,18.39,18.39,0,0,1-8.33,1.68q-6,0-9.65-2.05a14.44,14.44,0,0,1-5.81-6.55q-2.18-4.5-2.17-11.91,0-10.86,4.56-15.9t12.66-5a21.13,21.13,0,0,1,7.56,1.1,11.69,11.69,0,0,1,4.61,3.24A14.5,14.5,0,0,1,1806.41,874.83Zm-20.51,17.86a7.42,7.42,0,0,0,1.64,5.1,5.19,5.19,0,0,0,4,1.84,4.71,4.71,0,0,0,3.67-1.66,7.35,7.35,0,0,0,1.47-5,7.73,7.73,0,0,0-1.53-5.17,4.84,4.84,0,0,0-3.8-1.78,5.07,5.07,0,0,0-3.9,1.73A7.09,7.09,0,0,0,1785.9,892.69Z" transform="translate(-32.61 -472.44)"/></svg>